<svg xmlns="http://www.w3.org/2000/svg" viewBox="754 306 166 328"><path fill="#dbcdb2" d="M 897.230469 370.644531 C 892.285156 369.339844 886.789062 367.601562 883.417969 357.59375 C 880.808594 349.925781 873.847656 321.757812 844.261719 314.632812 C 814.679688 307.453125 788.738281 320.179688 778.296875 339.484375 C 767.855469 358.789062 772.53125 379.671875 773.945312 385.4375 C 775.359375 391.203125 776.71875 397.074219 773.238281 399.359375 C 769.757812 401.644531 768.5625 403.003906 771.824219 404.253906 C 775.144531 405.449219 783.410156 405.996094 789.066406 403.710938 L 791.785156 407.789062 C 791.785156 407.789062 793.632812 410.289062 794.285156 411.160156 C 794.285156 411.160156 794.558594 415.839844 797.058594 418.992188 C 799.5625 422.144531 800.867188 426.226562 803.042969 427.800781 C 803.042969 427.800781 801.738281 427.964844 801.574219 428.835938 C 801.410156 429.707031 801.738281 432.207031 804.726562 432.152344 C 804.726562 432.152344 805.871094 433.292969 806.359375 434.65625 C 806.847656 436.015625 806.792969 436.121094 807.992188 435.851562 C 809.1875 435.578125 811.632812 435.523438 811.632812 435.523438 C 811.632812 435.523438 813.265625 436.9375 813.539062 438.027344 C 813.539062 438.027344 811.523438 438.136719 811.035156 438.136719 C 810.492188 438.136719 810.492188 439.277344 810.925781 439.765625 C 811.363281 440.253906 813.265625 440.960938 814.246094 442.214844 C 815.222656 443.464844 813.644531 443.628906 815.984375 444.117188 C 816.039062 444.117188 816.148438 444.117188 816.203125 444.171875 C 817.289062 456.898438 819.191406 469.621094 818.757812 482.347656 C 818.757812 484.742188 818.757812 487.078125 818.648438 489.417969 C 818.59375 490.613281 818.59375 491.757812 818.539062 492.953125 L 818.269531 496.324219 C 817.671875 500.890625 816.746094 505.570312 815.765625 510.246094 C 814.898438 514.160156 814.027344 518.1875 813.210938 522.210938 C 812.832031 521.394531 812.449219 520.632812 812.015625 519.871094 C 811.363281 518.730469 810.710938 517.585938 809.949219 516.5 C 810.382812 514.921875 810.820312 511.386719 810.765625 507.582031 C 810.710938 504.917969 810.164062 502.304688 809.621094 499.695312 C 809.457031 498.824219 808.097656 498.988281 808.097656 499.914062 C 808.207031 502.46875 808.207031 505.023438 807.992188 507.582031 C 807.828125 509.320312 807.609375 511.0625 807.175781 512.585938 C 806.25 511.332031 805.324219 510.136719 804.347656 508.941406 C 801.464844 503.71875 797.710938 502.6875 796.789062 497.25 C 795.808594 491.15625 789.71875 492.515625 785.367188 489.253906 C 783.734375 488.058594 783.136719 487.078125 782.972656 486.644531 C 783.082031 487.132812 783.246094 488.492188 782.757812 491.265625 C 781.507812 498.226562 782.539062 505.839844 788.738281 506.765625 C 792.816406 507.363281 795.210938 507.851562 797.277344 508.886719 C 794.503906 508.722656 791.621094 509.8125 789.230469 511.933594 C 785.148438 515.519531 781.34375 514.976562 781.34375 514.976562 C 781.34375 514.976562 789.230469 521.613281 794.613281 517.804688 C 798.417969 515.085938 800.867188 512.910156 802.007812 511.878906 C 802.0625 511.878906 803.695312 514.160156 804.402344 515.304688 C 805.761719 517.480469 807.121094 519.652344 808.261719 521.882812 C 809.457031 524.113281 811.308594 528.628906 811.6875 530.09375 C 811.144531 533.25 810.820312 535.804688 810.546875 539.070312 C 810.058594 544.015625 809.949219 549.074219 810.21875 554.078125 L 810.710938 561.257812 C 810.820312 563.539062 810.871094 565.878906 810.871094 568.164062 C 810.871094 572.785156 810.546875 577.410156 810.058594 581.976562 C 809.785156 584.261719 809.457031 586.542969 809.078125 588.828125 C 808.859375 590.078125 808.644531 591.332031 808.371094 592.527344 C 803.910156 594.375 798.910156 596.933594 793.46875 594.210938 C 784.769531 589.863281 777.046875 588.773438 767.855469 595.679688 C 762.039062 600.03125 756.761719 599.542969 762.527344 600.519531 C 768.292969 601.5 776.992188 601.5 769.757812 607.265625 C 762.527344 613.082031 750.941406 613.082031 771.226562 611.613281 C 791.511719 610.148438 789.554688 601.5 794.882812 611.125 C 800.214844 620.804688 812.722656 609.65625 819.03125 608.242188 C 825.285156 606.773438 833.984375 610.199219 843.664062 614.0625 C 853.34375 617.921875 850.898438 606.339844 855.25 605.359375 C 859.597656 604.382812 864.929688 604.382812 864.929688 604.382812 C 857.695312 592.308594 838.390625 601.5 834.527344 598.128906 C 831.59375 595.570312 825.664062 594.105469 820.445312 592.746094 C 820.5 591.929688 820.605469 591.113281 820.660156 590.296875 C 820.878906 587.796875 820.933594 585.292969 821.042969 582.792969 C 821.207031 577.789062 821.097656 572.839844 820.824219 567.890625 C 820.660156 565.390625 820.445312 562.941406 820.226562 560.441406 L 819.300781 553.316406 C 818.8125 548.804688 818.703125 544.234375 818.921875 539.613281 C 819.355469 530.367188 821.042969 521.066406 822.671875 511.605469 C 823.488281 506.984375 824.304688 502.359375 824.847656 497.574219 C 826.425781 497.738281 829.253906 498.445312 830.558594 501.382812 C 832.460938 505.570312 828.65625 514 837.847656 516.71875 C 847.039062 519.382812 845.132812 522.863281 845.132812 522.863281 C 845.132812 522.863281 849.320312 517.914062 845.132812 511.007812 C 840.945312 504.101562 844.753906 498.769531 838.609375 496.867188 C 834.636719 495.617188 833.605469 495.835938 830.886719 495.835938 C 831.210938 495.78125 831.429688 495.78125 832.898438 495.289062 C 839.371094 493.277344 839.96875 490.179688 844.210938 488.273438 C 844.210938 488.273438 840.074219 488.328125 836.976562 489.636719 C 833.929688 490.886719 830.832031 493.550781 826.480469 493.605469 C 826.808594 492.84375 827.078125 492.082031 827.40625 491.320312 L 830.179688 484.085938 C 831.101562 481.695312 832.027344 479.246094 833.0625 476.910156 C 834.09375 474.570312 835.074219 472.179688 836.378906 469.839844 C 836.542969 469.566406 836.542969 469.242188 836.378906 468.96875 C 836.160156 468.589844 835.617188 468.425781 835.234375 468.699219 C 832.789062 470.164062 830.832031 472.285156 829.089844 474.460938 C 827.730469 476.203125 826.589844 477.996094 825.5 479.902344 C 825.449219 471.089844 825.664062 462.390625 826.101562 453.578125 C 826.316406 449.011719 826.425781 444.441406 826.425781 439.820312 C 827.675781 438.839844 830.179688 436.882812 831.320312 436.230469 C 832.898438 435.308594 833.929688 432.96875 835.996094 431.554688 C 838.0625 430.140625 838.988281 429.488281 839.261719 428.835938 C 839.53125 428.183594 837.847656 427.53125 837.847656 427.53125 C 837.847656 427.53125 841.871094 421.765625 843.71875 416.816406 C 845.570312 411.867188 849.210938 400.503906 850.625 398.542969 C 852.039062 396.585938 852.964844 395.28125 853.238281 391.636719 C 853.238281 391.636719 854.160156 391.257812 855.195312 391.09375 C 856.226562 390.984375 854.652344 388.753906 854.652344 388.753906 C 854.652344 388.753906 873.792969 383.207031 878.523438 380.597656 C 883.203125 377.988281 898.589844 375.105469 899.898438 374.996094 C 901.09375 374.726562 902.179688 371.953125 897.230469 370.644531 Z M 815.550781 429.488281 C 813.320312 428.945312 811.089844 426.605469 809.566406 423.886719 C 808.042969 421.167969 803.695312 413.171875 803.695312 413.171875 C 803.695312 413.171875 805.378906 412.902344 805.378906 411.867188 C 805.378906 410.835938 803.152344 408.984375 802.390625 407.679688 C 801.628906 406.375 799.398438 398.816406 799.398438 398.816406 C 799.398438 398.816406 806.957031 398.054688 816.257812 396.859375 C 816.800781 406.210938 816.636719 415.621094 815.660156 425.082031 C 815.550781 426.550781 815.550781 428.019531 815.550781 429.488281 Z M 836.269531 416.707031 C 832.191406 422.851562 828.820312 428.292969 826.046875 431.445312 C 825.882812 429.160156 825.71875 426.933594 825.449219 424.648438 C 823.652344 415.132812 822.566406 405.613281 822.183594 396.042969 C 830.289062 394.902344 838.714844 393.433594 844.101562 391.910156 C 844.101562 391.910156 841.980469 408.117188 836.269531 416.707031 Z M 836.269531 416.707031 "/><path fill="#000000" d="M 909.230469 382.644531 C 904.285156 381.339844 898.789062 379.601562 895.417969 369.59375 C 892.808594 361.925781 885.847656 333.757812 856.261719 326.632812 C 826.679688 319.453125 800.738281 332.179688 790.296875 351.484375 C 779.855469 370.789062 784.53125 391.671875 785.945312 397.4375 C 787.359375 403.203125 788.71875 409.074219 785.238281 411.359375 C 781.757812 413.644531 780.5625 415.003906 783.824219 416.253906 C 787.144531 417.449219 795.410156 417.996094 801.066406 415.710938 L 803.785156 419.789062 C 803.785156 419.789062 805.632812 422.289062 806.285156 423.160156 C 806.285156 423.160156 806.558594 427.839844 809.058594 430.992188 C 811.5625 434.144531 812.867188 438.226562 815.042969 439.800781 C 815.042969 439.800781 813.738281 439.964844 813.574219 440.835938 C 813.410156 441.707031 813.738281 444.207031 816.726562 444.152344 C 816.726562 444.152344 817.871094 445.292969 818.359375 446.65625 C 818.847656 448.015625 818.792969 448.121094 819.992188 447.851562 C 821.1875 447.578125 823.632812 447.523438 823.632812 447.523438 C 823.632812 447.523438 825.265625 448.9375 825.539062 450.027344 C 825.539062 450.027344 823.523438 450.136719 823.035156 450.136719 C 822.492188 450.136719 822.492188 451.277344 822.925781 451.765625 C 823.363281 452.253906 825.265625 452.960938 826.246094 454.214844 C 827.222656 455.464844 825.644531 455.628906 827.984375 456.117188 C 828.039062 456.117188 828.148438 456.117188 828.203125 456.171875 C 829.289062 468.898438 831.191406 481.621094 830.757812 494.347656 C 830.757812 496.742188 830.757812 499.078125 830.648438 501.417969 C 830.59375 502.613281 830.59375 503.757812 830.539062 504.953125 L 830.269531 508.324219 C 829.671875 512.890625 828.746094 517.570312 827.765625 522.246094 C 826.898438 526.160156 826.027344 530.1875 825.210938 534.210938 C 824.832031 533.394531 824.449219 532.632812 824.015625 531.871094 C 823.363281 530.730469 822.710938 529.585938 821.949219 528.5 C 822.382812 526.921875 822.820312 523.386719 822.765625 519.582031 C 822.710938 516.917969 822.164062 514.304688 821.621094 511.695312 C 821.457031 510.824219 820.097656 510.988281 820.097656 511.914062 C 820.207031 514.46875 820.207031 517.023438 819.992188 519.582031 C 819.828125 521.320312 819.609375 523.0625 819.175781 524.585938 C 818.25 523.332031 817.324219 522.136719 816.347656 520.941406 C 813.464844 515.71875 809.710938 514.6875 808.789062 509.25 C 807.808594 503.15625 801.71875 504.515625 797.367188 501.253906 C 795.734375 500.058594 795.136719 499.078125 794.972656 498.644531 C 795.082031 499.132812 795.246094 500.492188 794.757812 503.265625 C 793.507812 510.226562 794.539062 517.839844 800.738281 518.765625 C 804.816406 519.363281 807.210938 519.851562 809.277344 520.886719 C 806.503906 520.722656 803.621094 521.8125 801.230469 523.933594 C 797.148438 527.519531 793.34375 526.976562 793.34375 526.976562 C 793.34375 526.976562 801.230469 533.613281 806.613281 529.804688 C 810.417969 527.085938 812.867188 524.910156 814.007812 523.878906 C 814.0625 523.878906 815.695312 526.160156 816.402344 527.304688 C 817.761719 529.480469 819.121094 531.652344 820.261719 533.882812 C 821.457031 536.113281 823.308594 540.628906 823.6875 542.09375 C 823.144531 545.25 822.820312 547.804688 822.546875 551.070312 C 822.058594 556.015625 821.949219 561.074219 822.21875 566.078125 L 822.710938 573.257812 C 822.820312 575.539062 822.871094 577.878906 822.871094 580.164062 C 822.871094 584.785156 822.546875 589.410156 822.058594 593.976562 C 821.785156 596.261719 821.457031 598.542969 821.078125 600.828125 C 820.859375 602.078125 820.644531 603.332031 820.371094 604.527344 C 815.910156 606.375 810.910156 608.933594 805.46875 606.210938 C 796.769531 601.863281 789.046875 600.773438 779.855469 607.679688 C 774.039062 612.03125 768.761719 611.542969 774.527344 612.519531 C 780.292969 613.5 788.992188 613.5 781.757812 619.265625 C 774.527344 625.082031 762.941406 625.082031 783.226562 623.613281 C 803.511719 622.148438 801.554688 613.5 806.882812 623.125 C 812.214844 632.804688 824.722656 621.65625 831.03125 620.242188 C 837.285156 618.773438 845.984375 622.199219 855.664062 626.0625 C 865.34375 629.921875 862.898438 618.339844 867.25 617.359375 C 871.597656 616.382812 876.929688 616.382812 876.929688 616.382812 C 869.695312 604.308594 850.390625 613.5 846.527344 610.128906 C 843.59375 607.570312 837.664062 606.105469 832.445312 604.746094 C 832.5 603.929688 832.605469 603.113281 832.660156 602.296875 C 832.878906 599.796875 832.933594 597.292969 833.042969 594.792969 C 833.207031 589.789062 833.097656 584.839844 832.824219 579.890625 C 832.660156 577.390625 832.445312 574.941406 832.226562 572.441406 L 831.300781 565.316406 C 830.8125 560.804688 830.703125 556.234375 830.921875 551.613281 C 831.355469 542.367188 833.042969 533.066406 834.671875 523.605469 C 835.488281 518.984375 836.304688 514.359375 836.847656 509.574219 C 838.425781 509.738281 841.253906 510.445312 842.558594 513.382812 C 844.460938 517.570312 840.65625 526 849.847656 528.71875 C 859.039062 531.382812 857.132812 534.863281 857.132812 534.863281 C 857.132812 534.863281 861.320312 529.914062 857.132812 523.007812 C 852.945312 516.101562 856.753906 510.769531 850.609375 508.867188 C 846.636719 507.617188 845.605469 507.835938 842.886719 507.835938 C 843.210938 507.78125 843.429688 507.78125 844.898438 507.289062 C 851.371094 505.277344 851.96875 502.179688 856.210938 500.273438 C 856.210938 500.273438 852.074219 500.328125 848.976562 501.636719 C 845.929688 502.886719 842.832031 505.550781 838.480469 505.605469 C 838.808594 504.84375 839.078125 504.082031 839.40625 503.320312 L 842.179688 496.085938 C 843.101562 493.695312 844.027344 491.246094 845.0625 488.910156 C 846.09375 486.570312 847.074219 484.179688 848.378906 481.839844 C 848.542969 481.566406 848.542969 481.242188 848.378906 480.96875 C 848.160156 480.589844 847.617188 480.425781 847.234375 480.699219 C 844.789062 482.164062 842.832031 484.285156 841.089844 486.460938 C 839.730469 488.203125 838.589844 489.996094 837.5 491.902344 C 837.449219 483.089844 837.664062 474.390625 838.101562 465.578125 C 838.316406 461.011719 838.425781 456.441406 838.425781 451.820312 C 839.675781 450.839844 842.179688 448.882812 843.320312 448.230469 C 844.898438 447.308594 845.929688 444.96875 847.996094 443.554688 C 850.0625 442.140625 850.988281 441.488281 851.261719 440.835938 C 851.53125 440.183594 849.847656 439.53125 849.847656 439.53125 C 849.847656 439.53125 853.871094 433.765625 855.71875 428.816406 C 857.570312 423.867188 861.210938 412.503906 862.625 410.542969 C 864.039062 408.585938 864.964844 407.28125 865.238281 403.636719 C 865.238281 403.636719 866.160156 403.257812 867.195312 403.09375 C 868.226562 402.984375 866.652344 400.753906 866.652344 400.753906 C 866.652344 400.753906 885.792969 395.207031 890.523438 392.597656 C 895.203125 389.988281 910.589844 387.105469 911.898438 386.996094 C 913.09375 386.726562 914.179688 383.953125 909.230469 382.644531 Z M 827.550781 441.488281 C 825.320312 440.945312 823.089844 438.605469 821.566406 435.886719 C 820.042969 433.167969 815.695312 425.171875 815.695312 425.171875 C 815.695312 425.171875 817.378906 424.902344 817.378906 423.867188 C 817.378906 422.835938 815.152344 420.984375 814.390625 419.679688 C 813.628906 418.375 811.398438 410.816406 811.398438 410.816406 C 811.398438 410.816406 818.957031 410.054688 828.257812 408.859375 C 828.800781 418.210938 828.636719 427.621094 827.660156 437.082031 C 827.550781 438.550781 827.550781 440.019531 827.550781 441.488281 Z M 848.269531 428.707031 C 844.191406 434.851562 840.820312 440.292969 838.046875 443.445312 C 837.882812 441.160156 837.71875 438.933594 837.449219 436.648438 C 835.652344 427.132812 834.566406 417.613281 834.183594 408.042969 C 842.289062 406.902344 850.714844 405.433594 856.101562 403.910156 C 856.101562 403.910156 853.980469 420.117188 848.269531 428.707031 Z M 848.269531 428.707031 "/></svg>