<svg xmlns="http://www.w3.org/2000/svg" viewBox="904 74 472 594"><path fill="#dbcdb2" d="M 1358.015625 588.664062 C 1357.035156 578.714844 1352.902344 565.714844 1341.15625 552.9375 C 1335.230469 546.464844 1328.8125 539.777344 1331.476562 536.078125 C 1334.140625 532.378906 1330.226562 525.039062 1328.214844 518.457031 C 1326.148438 511.933594 1322.613281 508.34375 1320.601562 508.015625 C 1318.585938 507.691406 1308.527344 509.160156 1304.066406 511.007812 C 1299.609375 512.855469 1286.449219 514.378906 1280.464844 519.601562 C 1274.429688 524.820312 1275.84375 532.269531 1270.730469 532 C 1265.621094 531.726562 1262.464844 535.316406 1260.019531 537.492188 C 1257.570312 539.667969 1237.882812 537.003906 1237.882812 537.003906 C 1237.882812 537.003906 1235.925781 533.085938 1228.964844 534.554688 C 1222.003906 536.023438 1217.871094 532.761719 1209.441406 533.957031 C 1206.996094 534.335938 1203.351562 534.9375 1199.488281 535.589844 C 1200.796875 533.847656 1202.15625 532.054688 1203.515625 530.257812 C 1205.089844 527.757812 1208.570312 521.773438 1208.570312 521.773438 C 1209.605469 512.585938 1213.683594 509.539062 1217.273438 504.917969 C 1220.863281 500.347656 1222.875 498.769531 1222.386719 492.136719 C 1221.894531 485.5 1225.429688 487.570312 1228.53125 485.011719 C 1231.574219 482.457031 1236.199219 478.378906 1236.6875 472.234375 C 1237.175781 466.085938 1242.289062 456.898438 1242.289062 456.898438 C 1242.289062 456.898438 1256.589844 452.328125 1258.605469 450.261719 C 1260.671875 448.195312 1270.351562 443.628906 1278.996094 440.582031 C 1287.644531 437.535156 1296.34375 420.1875 1299.390625 413.554688 C 1302.4375 406.917969 1301.945312 389.082031 1301.945312 389.082031 L 1307.058594 388.59375 C 1307.058594 382.445312 1305.535156 373.800781 1300.425781 364.121094 C 1295.3125 354.441406 1279.488281 344.214844 1279.488281 344.214844 C 1279.488281 344.214844 1277.421875 335.515625 1275.898438 327.902344 C 1274.375 320.234375 1268.773438 320.777344 1268.773438 320.777344 C 1268.773438 320.777344 1265.183594 305.984375 1260.617188 303.429688 C 1256.046875 300.875 1249.902344 299.839844 1244.789062 293.207031 C 1239.679688 286.570312 1230 276.890625 1230 276.890625 C 1230 276.890625 1228.964844 267.699219 1221.296875 263.132812 C 1213.628906 258.5625 1201.882812 250.351562 1177.410156 229.957031 C 1152.9375 209.566406 1099.808594 200.320312 1083.003906 195.859375 C 1080.664062 195.207031 1077.945312 194.9375 1075.171875 194.882812 C 1075.117188 194.828125 1075.0625 194.773438 1075.007812 194.773438 C 1074.84375 194.71875 1074.628906 194.773438 1074.464844 194.882812 C 1073.484375 194.882812 1072.5625 194.882812 1071.582031 194.9375 L 1093.0625 143.492188 L 1096.488281 143.925781 C 1096.488281 143.925781 1102.6875 130.113281 1102.363281 129.460938 C 1102.035156 128.808594 1099.863281 127.71875 1099.863281 127.71875 L 1100.785156 125.21875 L 1105.84375 126.46875 C 1105.84375 126.46875 1107.203125 123.96875 1107.636719 122.117188 C 1108.128906 120.269531 1105.789062 120.050781 1104.648438 119.398438 C 1103.503906 118.746094 1102.851562 117.113281 1102.851562 117.113281 L 1114.164062 90.03125 C 1115.304688 89.871094 1117.316406 84.8125 1116.9375 84.375 C 1116.558594 83.996094 1111.5 82.746094 1111.5 82.746094 L 1109.921875 85.136719 C 1109.050781 84.160156 1101.382812 81.875 1101.382812 81.875 L 1099.480469 84.050781 C 1099.480469 84.050781 1094.914062 82.582031 1093.390625 81.929688 C 1091.867188 81.277344 1089.148438 82.308594 1087.898438 84.539062 C 1086.644531 86.769531 1087.40625 89.816406 1088.605469 90.195312 C 1089.800781 90.578125 1092.953125 92.804688 1092.953125 92.804688 L 1048.253906 194.5 C 1048.253906 194.5 1047.546875 194.664062 1047 195.152344 C 1046.839844 195.261719 1045.585938 197.820312 1043.792969 201.570312 C 1043.085938 201.460938 1042.324219 201.300781 1041.398438 201.082031 C 1037.972656 200.320312 1033.625 205.539062 1033.625 205.539062 L 1031.558594 202.496094 C 1038.84375 191.019531 1039.441406 177.75 1034.492188 173.507812 C 1028.675781 168.613281 1011.925781 172.367188 1011.925781 172.367188 C 983.589844 152.082031 951.070312 163.558594 931.929688 181.175781 C 912.785156 198.796875 917.40625 232.460938 917.40625 232.460938 C 917.40625 232.460938 905.878906 250.894531 912.023438 257.695312 C 919.800781 266.230469 950.144531 259.324219 950.144531 259.324219 C 950.144531 259.324219 952.429688 265.960938 952.703125 269.277344 C 952.972656 272.59375 952.972656 275.640625 955.257812 276.671875 C 957.542969 277.707031 962.164062 276.402344 964.722656 272.59375 C 964.722656 272.59375 968.800781 275.640625 969.289062 278.46875 C 969.777344 281.296875 973.855469 280.75 975.652344 279.230469 C 975.652344 279.230469 977.175781 282.546875 979.457031 283.035156 C 981.742188 283.523438 982.503906 281.242188 984.027344 283.035156 C 985.550781 284.832031 985.820312 287.605469 989.136719 289.179688 C 993.378906 291.140625 999.851562 289.453125 1002.898438 284.070312 C 1003.984375 282.164062 1005.671875 280.316406 1007.410156 278.738281 C 1007.847656 279.066406 1008.117188 279.230469 1008.117188 279.230469 C 1008.117188 279.230469 993.871094 315.558594 993.871094 316.101562 C 993.871094 316.644531 994.957031 317.132812 994.957031 317.132812 L 992.511719 323.878906 C 992.511719 323.878906 990.226562 322.246094 989.574219 323.117188 C 988.921875 323.984375 987.777344 328.71875 986.3125 330.945312 C 984.898438 333.121094 985.875 334.265625 986.964844 334.644531 C 988.105469 335.027344 988.378906 333.503906 988.378906 333.503906 L 989.738281 334.320312 L 986.746094 343.074219 L 984.082031 343.890625 L 981.960938 344.160156 C 981.960938 344.160156 980.058594 347.804688 980.109375 348.1875 C 980.164062 348.566406 980.871094 350.46875 980.871094 350.46875 C 980.871094 350.46875 970.539062 376.410156 969.886719 377.769531 C 969.234375 379.128906 971.628906 380.109375 974.019531 380.871094 C 976.414062 381.632812 978.695312 382.9375 978.695312 382.9375 C 978.695312 382.9375 980.058594 391.09375 980.382812 394.140625 C 980.492188 395.117188 980.492188 397.292969 980.492188 399.796875 C 977.390625 398.761719 975.652344 401.316406 974.5625 405.886719 C 974.402344 406.648438 974.238281 407.410156 974.074219 408.171875 C 973.910156 408.222656 973.75 408.332031 973.585938 408.386719 C 972.988281 408.117188 972.335938 407.84375 971.574219 407.570312 C 967.003906 406.105469 964.121094 409.855469 964.121094 413.28125 C 964.121094 415.785156 965.699219 417.523438 968.039062 418.339844 C 967.929688 418.773438 967.820312 419.210938 967.765625 419.644531 C 967.496094 419.535156 967.277344 419.480469 967.003906 419.371094 C 962.109375 417.957031 961.457031 422.636719 961.457031 425.953125 C 961.457031 427.476562 962.164062 428.726562 963.308594 429.652344 C 960.535156 430.03125 960.152344 433.894531 960.152344 436.722656 C 960.152344 438.460938 960.914062 439.820312 962.164062 440.800781 C 961.242188 441.886719 961.023438 443.683594 961.023438 445.097656 C 961.023438 447.707031 964.015625 449.335938 967.875 449.335938 C 967.929688 449.335938 967.929688 449.335938 967.984375 449.335938 C 961.078125 467.445312 946.71875 508.722656 948.460938 510.136719 C 950.582031 511.878906 961.292969 514.8125 967.765625 517.152344 C 974.183594 519.492188 996.699219 528.082031 1000.992188 527.105469 C 1000.992188 527.105469 1002.898438 526.667969 1002.460938 523.132812 C 1002.027344 519.601562 1001.699219 512.257812 1001.699219 512.257812 C 1003.550781 513.183594 1004.148438 508.613281 1004.527344 506.765625 C 1004.964844 504.972656 1005.34375 501.542969 1003.820312 500.132812 C 1002.300781 498.71875 1001.101562 493.769531 1001.101562 493.769531 C 1001.101562 493.769531 1000.558594 463.152344 1000.777344 453.796875 C 1010.402344 452.925781 1016.601562 451.785156 1020.734375 450.535156 C 1019.59375 461.464844 1019.050781 472.503906 1019.863281 478.378906 C 1021.550781 490.34375 1017.527344 521.882812 1011.054688 532.921875 C 1008.28125 537.65625 1010.511719 540.539062 1014.589844 542.332031 C 1011.542969 548.042969 1007.355469 555.113281 1003.550781 558.101562 C 996.699219 563.488281 988.976562 573.765625 981.089844 581.648438 C 973.203125 589.535156 960.042969 587.851562 959.390625 595.191406 C 958.738281 602.535156 976.523438 601.390625 985.820312 595.84375 C 986.910156 595.191406 988.269531 594.160156 989.792969 592.90625 C 993.273438 591.929688 997.296875 589.699219 999.742188 587.6875 C 1004.039062 584.152344 1001.648438 583.011719 1006.050781 580.835938 C 1010.457031 578.660156 1012.742188 579.421875 1016.492188 574.582031 C 1017.742188 572.949219 1019.101562 571.914062 1020.355469 571.15625 C 1022.800781 570.71875 1025.195312 570.882812 1027.207031 572.40625 C 1029.761719 574.308594 1031.992188 580.074219 1034.003906 582.355469 C 1039.605469 588.609375 1040.691406 596.605469 1049.066406 595.027344 C 1053.746094 594.105469 1051.839844 587.46875 1049.175781 582.355469 C 1045.859375 575.996094 1048.359375 577.625 1044.066406 569.035156 C 1044.066406 569.035156 1043.140625 560.605469 1045.152344 555.601562 C 1046.675781 551.902344 1048.578125 549.128906 1047.164062 543.636719 C 1050.972656 542.710938 1055.050781 542.222656 1059.402344 543.691406 C 1059.402344 543.691406 1059.78125 529.007812 1060 521.613281 C 1060.214844 514.214844 1067.015625 519.4375 1070.167969 506.765625 C 1073.324219 494.148438 1071.691406 465.054688 1071.691406 465.054688 C 1071.691406 465.054688 1073.484375 462.445312 1075.988281 458.039062 C 1076.203125 475.875 1081.371094 482.183594 1086.484375 498.988281 C 1087.84375 503.503906 1095.183594 524.003906 1094.152344 528.082031 C 1092.464844 534.828125 1098.773438 540.644531 1097.742188 547.5 C 1096.652344 554.566406 1098.449219 560.113281 1104.375 566.367188 C 1102.851562 581.703125 1106.824219 580.128906 1103.34375 589.316406 C 1102.527344 591.492188 1100.351562 595.027344 1098.554688 597.855469 C 1088.929688 604.492188 1077.074219 609.601562 1072.617188 609.601562 C 1067.230469 609.601562 1054.722656 606.9375 1045.695312 613.898438 C 1036.015625 621.402344 1031.71875 638.644531 1042.488281 642.9375 C 1053.253906 647.234375 1093.0625 651.53125 1105.953125 647.234375 C 1118.839844 642.9375 1129.609375 637.554688 1130.695312 644.027344 C 1131.785156 650.5 1156.527344 645.113281 1160.824219 641.851562 C 1164.523438 639.078125 1170.667969 618.738281 1163.054688 603.675781 C 1168.492188 602.425781 1172.84375 601.335938 1175.125 601.011719 C 1183.609375 599.8125 1200.089844 601.664062 1203.949219 600.25 C 1207.8125 598.78125 1226.410156 590.730469 1226.410156 590.730469 C 1226.410156 590.730469 1225.703125 595.246094 1231.359375 595.136719 C 1237.070312 595.027344 1257.136719 582.792969 1262.355469 582.574219 C 1267.578125 582.355469 1278.128906 577.898438 1278.128906 577.898438 C 1282.914062 580.238281 1285.414062 577.515625 1285.414062 577.515625 C 1292.050781 578.0625 1306.132812 577.246094 1309.832031 579.910156 C 1313.53125 582.574219 1316.140625 585.566406 1316.140625 585.566406 C 1315.921875 587.089844 1315.921875 588.558594 1315.921875 588.558594 C 1308.636719 599.269531 1311.953125 608.839844 1314.019531 612.269531 C 1316.03125 615.695312 1321.6875 617.378906 1334.683594 614.550781 C 1352.523438 611.125 1358.992188 598.671875 1358.015625 588.664062 Z M 1003.222656 381.632812 C 1003.605469 379.726562 1004.636719 379.183594 1004.636719 379.183594 C 1004.636719 379.183594 1006.542969 382.882812 1008.824219 384.296875 C 1011.109375 385.65625 1014.316406 386.144531 1015.675781 384.839844 C 1016.984375 383.480469 1013.828125 384.078125 1011.761719 383.480469 C 1009.695312 382.882812 1007.847656 378.207031 1007.792969 375.433594 C 1007.738281 372.660156 1010.457031 368.851562 1010.457031 368.851562 L 1018.070312 372.710938 C 1018.070312 372.710938 1020.464844 378.75 1020.082031 381.085938 C 1019.703125 383.425781 1016.382812 388.210938 1015.242188 388.917969 C 1014.15625 389.625 1010.511719 391.476562 1007.628906 389.460938 C 1004.746094 387.449219 1002.84375 383.589844 1003.222656 381.632812 Z M 1019.972656 409.257812 C 1019.320312 409.585938 1018.996094 410.507812 1018.832031 411.921875 C 1012.957031 411.703125 1007.355469 407.84375 1005.5625 406.15625 C 1003.222656 403.984375 1002.625 404.851562 1000.125 402.296875 C 999.851562 402.023438 999.582031 401.808594 999.308594 401.589844 C 999.472656 395.28125 999.582031 391.09375 999.582031 391.09375 C 999.582031 391.09375 1005.886719 394.03125 1008.28125 394.410156 C 1010.621094 394.792969 1017.851562 393.378906 1020.136719 390.605469 C 1022.3125 387.941406 1024.597656 382.230469 1024.488281 380.378906 C 1026.390625 388.15625 1026.390625 394.300781 1027.96875 401.316406 C 1025.464844 404.582031 1022.855469 407.84375 1019.972656 409.257812 Z M 1019.972656 409.257812 "/><path fill="#000000" d="M 1370.015625 600.664062 C 1369.035156 590.714844 1364.902344 577.714844 1353.15625 564.9375 C 1347.230469 558.464844 1340.8125 551.777344 1343.476562 548.078125 C 1346.140625 544.378906 1342.226562 537.039062 1340.214844 530.457031 C 1338.148438 523.933594 1334.613281 520.34375 1332.601562 520.015625 C 1330.585938 519.691406 1320.527344 521.160156 1316.066406 523.007812 C 1311.609375 524.855469 1298.449219 526.378906 1292.464844 531.601562 C 1286.429688 536.820312 1287.84375 544.269531 1282.730469 544 C 1277.621094 543.726562 1274.464844 547.316406 1272.019531 549.492188 C 1269.570312 551.667969 1249.882812 549.003906 1249.882812 549.003906 C 1249.882812 549.003906 1247.925781 545.085938 1240.964844 546.554688 C 1234.003906 548.023438 1229.871094 544.761719 1221.441406 545.957031 C 1218.996094 546.335938 1215.351562 546.9375 1211.488281 547.589844 C 1212.796875 545.847656 1214.15625 544.054688 1215.515625 542.257812 C 1217.089844 539.757812 1220.570312 533.773438 1220.570312 533.773438 C 1221.605469 524.585938 1225.683594 521.539062 1229.273438 516.917969 C 1232.863281 512.347656 1234.875 510.769531 1234.386719 504.136719 C 1233.894531 497.5 1237.429688 499.570312 1240.53125 497.011719 C 1243.574219 494.457031 1248.199219 490.378906 1248.6875 484.234375 C 1249.175781 478.085938 1254.289062 468.898438 1254.289062 468.898438 C 1254.289062 468.898438 1268.589844 464.328125 1270.605469 462.261719 C 1272.671875 460.195312 1282.351562 455.628906 1290.996094 452.582031 C 1299.644531 449.535156 1308.34375 432.1875 1311.390625 425.554688 C 1314.4375 418.917969 1313.945312 401.082031 1313.945312 401.082031 L 1319.058594 400.59375 C 1319.058594 394.445312 1317.535156 385.800781 1312.425781 376.121094 C 1307.3125 366.441406 1291.488281 356.214844 1291.488281 356.214844 C 1291.488281 356.214844 1289.421875 347.515625 1287.898438 339.902344 C 1286.375 332.234375 1280.773438 332.777344 1280.773438 332.777344 C 1280.773438 332.777344 1277.183594 317.984375 1272.617188 315.429688 C 1268.046875 312.875 1261.902344 311.839844 1256.789062 305.207031 C 1251.679688 298.570312 1242 288.890625 1242 288.890625 C 1242 288.890625 1240.964844 279.699219 1233.296875 275.132812 C 1225.628906 270.5625 1213.882812 262.351562 1189.410156 241.957031 C 1164.9375 221.566406 1111.808594 212.320312 1095.003906 207.859375 C 1092.664062 207.207031 1089.945312 206.9375 1087.171875 206.882812 C 1087.117188 206.828125 1087.0625 206.773438 1087.007812 206.773438 C 1086.84375 206.71875 1086.628906 206.773438 1086.464844 206.882812 C 1085.484375 206.882812 1084.5625 206.882812 1083.582031 206.9375 L 1105.0625 155.492188 L 1108.488281 155.925781 C 1108.488281 155.925781 1114.6875 142.113281 1114.363281 141.460938 C 1114.035156 140.808594 1111.863281 139.71875 1111.863281 139.71875 L 1112.785156 137.21875 L 1117.84375 138.46875 C 1117.84375 138.46875 1119.203125 135.96875 1119.636719 134.117188 C 1120.128906 132.269531 1117.789062 132.050781 1116.648438 131.398438 C 1115.503906 130.746094 1114.851562 129.113281 1114.851562 129.113281 L 1126.164062 102.03125 C 1127.304688 101.871094 1129.316406 96.8125 1128.9375 96.375 C 1128.558594 95.996094 1123.5 94.746094 1123.5 94.746094 L 1121.921875 97.136719 C 1121.050781 96.160156 1113.382812 93.875 1113.382812 93.875 L 1111.480469 96.050781 C 1111.480469 96.050781 1106.914062 94.582031 1105.390625 93.929688 C 1103.867188 93.277344 1101.148438 94.308594 1099.898438 96.539062 C 1098.644531 98.769531 1099.40625 101.816406 1100.605469 102.195312 C 1101.800781 102.578125 1104.953125 104.804688 1104.953125 104.804688 L 1060.253906 206.5 C 1060.253906 206.5 1059.546875 206.664062 1059 207.152344 C 1058.839844 207.261719 1057.585938 209.820312 1055.792969 213.570312 C 1055.085938 213.460938 1054.324219 213.300781 1053.398438 213.082031 C 1049.972656 212.320312 1045.625 217.539062 1045.625 217.539062 L 1043.558594 214.496094 C 1050.84375 203.019531 1051.441406 189.75 1046.492188 185.507812 C 1040.675781 180.613281 1023.925781 184.367188 1023.925781 184.367188 C 995.589844 164.082031 963.070312 175.558594 943.929688 193.175781 C 924.785156 210.796875 929.40625 244.460938 929.40625 244.460938 C 929.40625 244.460938 917.878906 262.894531 924.023438 269.695312 C 931.800781 278.230469 962.144531 271.324219 962.144531 271.324219 C 962.144531 271.324219 964.429688 277.960938 964.703125 281.277344 C 964.972656 284.59375 964.972656 287.640625 967.257812 288.671875 C 969.542969 289.707031 974.164062 288.402344 976.722656 284.59375 C 976.722656 284.59375 980.800781 287.640625 981.289062 290.46875 C 981.777344 293.296875 985.855469 292.75 987.652344 291.230469 C 987.652344 291.230469 989.175781 294.546875 991.457031 295.035156 C 993.742188 295.523438 994.503906 293.242188 996.027344 295.035156 C 997.550781 296.832031 997.820312 299.605469 1001.136719 301.179688 C 1005.378906 303.140625 1011.851562 301.453125 1014.898438 296.070312 C 1015.984375 294.164062 1017.671875 292.316406 1019.410156 290.738281 C 1019.847656 291.066406 1020.117188 291.230469 1020.117188 291.230469 C 1020.117188 291.230469 1005.871094 327.558594 1005.871094 328.101562 C 1005.871094 328.644531 1006.957031 329.132812 1006.957031 329.132812 L 1004.511719 335.878906 C 1004.511719 335.878906 1002.226562 334.246094 1001.574219 335.117188 C 1000.921875 335.984375 999.777344 340.71875 998.3125 342.945312 C 996.898438 345.121094 997.875 346.265625 998.964844 346.644531 C 1000.105469 347.027344 1000.378906 345.503906 1000.378906 345.503906 L 1001.738281 346.320312 L 998.746094 355.074219 L 996.082031 355.890625 L 993.960938 356.160156 C 993.960938 356.160156 992.058594 359.804688 992.109375 360.1875 C 992.164062 360.566406 992.871094 362.46875 992.871094 362.46875 C 992.871094 362.46875 982.539062 388.410156 981.886719 389.769531 C 981.234375 391.128906 983.628906 392.109375 986.019531 392.871094 C 988.414062 393.632812 990.695312 394.9375 990.695312 394.9375 C 990.695312 394.9375 992.058594 403.09375 992.382812 406.140625 C 992.492188 407.117188 992.492188 409.292969 992.492188 411.796875 C 989.390625 410.761719 987.652344 413.316406 986.5625 417.886719 C 986.402344 418.648438 986.238281 419.410156 986.074219 420.171875 C 985.910156 420.222656 985.75 420.332031 985.585938 420.386719 C 984.988281 420.117188 984.335938 419.84375 983.574219 419.570312 C 979.003906 418.105469 976.121094 421.855469 976.121094 425.28125 C 976.121094 427.785156 977.699219 429.523438 980.039062 430.339844 C 979.929688 430.773438 979.820312 431.210938 979.765625 431.644531 C 979.496094 431.535156 979.277344 431.480469 979.003906 431.371094 C 974.109375 429.957031 973.457031 434.636719 973.457031 437.953125 C 973.457031 439.476562 974.164062 440.726562 975.308594 441.652344 C 972.535156 442.03125 972.152344 445.894531 972.152344 448.722656 C 972.152344 450.460938 972.914062 451.820312 974.164062 452.800781 C 973.242188 453.886719 973.023438 455.683594 973.023438 457.097656 C 973.023438 459.707031 976.015625 461.335938 979.875 461.335938 C 979.929688 461.335938 979.929688 461.335938 979.984375 461.335938 C 973.078125 479.445312 958.71875 520.722656 960.460938 522.136719 C 962.582031 523.878906 973.292969 526.8125 979.765625 529.152344 C 986.183594 531.492188 1008.699219 540.082031 1012.992188 539.105469 C 1012.992188 539.105469 1014.898438 538.667969 1014.460938 535.132812 C 1014.027344 531.601562 1013.699219 524.257812 1013.699219 524.257812 C 1015.550781 525.183594 1016.148438 520.613281 1016.527344 518.765625 C 1016.964844 516.972656 1017.34375 513.542969 1015.820312 512.132812 C 1014.300781 510.71875 1013.101562 505.769531 1013.101562 505.769531 C 1013.101562 505.769531 1012.558594 475.152344 1012.777344 465.796875 C 1022.402344 464.925781 1028.601562 463.785156 1032.734375 462.535156 C 1031.59375 473.464844 1031.050781 484.503906 1031.863281 490.378906 C 1033.550781 502.34375 1029.527344 533.882812 1023.054688 544.921875 C 1020.28125 549.65625 1022.511719 552.539062 1026.589844 554.332031 C 1023.542969 560.042969 1019.355469 567.113281 1015.550781 570.101562 C 1008.699219 575.488281 1000.976562 585.765625 993.089844 593.648438 C 985.203125 601.535156 972.042969 599.851562 971.390625 607.191406 C 970.738281 614.535156 988.523438 613.390625 997.820312 607.84375 C 998.910156 607.191406 1000.269531 606.160156 1001.792969 604.90625 C 1005.273438 603.929688 1009.296875 601.699219 1011.742188 599.6875 C 1016.039062 596.152344 1013.648438 595.011719 1018.050781 592.835938 C 1022.457031 590.660156 1024.742188 591.421875 1028.492188 586.582031 C 1029.742188 584.949219 1031.101562 583.914062 1032.355469 583.15625 C 1034.800781 582.71875 1037.195312 582.882812 1039.207031 584.40625 C 1041.761719 586.308594 1043.992188 592.074219 1046.003906 594.355469 C 1051.605469 600.609375 1052.691406 608.605469 1061.066406 607.027344 C 1065.746094 606.105469 1063.839844 599.46875 1061.175781 594.355469 C 1057.859375 587.996094 1060.359375 589.625 1056.066406 581.035156 C 1056.066406 581.035156 1055.140625 572.605469 1057.152344 567.601562 C 1058.675781 563.902344 1060.578125 561.128906 1059.164062 555.636719 C 1062.972656 554.710938 1067.050781 554.222656 1071.402344 555.691406 C 1071.402344 555.691406 1071.78125 541.007812 1072 533.613281 C 1072.214844 526.214844 1079.015625 531.4375 1082.167969 518.765625 C 1085.324219 506.148438 1083.691406 477.054688 1083.691406 477.054688 C 1083.691406 477.054688 1085.484375 474.445312 1087.988281 470.039062 C 1088.203125 487.875 1093.371094 494.183594 1098.484375 510.988281 C 1099.84375 515.503906 1107.183594 536.003906 1106.152344 540.082031 C 1104.464844 546.828125 1110.773438 552.644531 1109.742188 559.5 C 1108.652344 566.566406 1110.449219 572.113281 1116.375 578.367188 C 1114.851562 593.703125 1118.824219 592.128906 1115.34375 601.316406 C 1114.527344 603.492188 1112.351562 607.027344 1110.554688 609.855469 C 1100.929688 616.492188 1089.074219 621.601562 1084.617188 621.601562 C 1079.230469 621.601562 1066.722656 618.9375 1057.695312 625.898438 C 1048.015625 633.402344 1043.71875 650.644531 1054.488281 654.9375 C 1065.253906 659.234375 1105.0625 663.53125 1117.953125 659.234375 C 1130.839844 654.9375 1141.609375 649.554688 1142.695312 656.027344 C 1143.785156 662.5 1168.527344 657.113281 1172.824219 653.851562 C 1176.523438 651.078125 1182.667969 630.738281 1175.054688 615.675781 C 1180.492188 614.425781 1184.84375 613.335938 1187.125 613.011719 C 1195.609375 611.8125 1212.089844 613.664062 1215.949219 612.25 C 1219.8125 610.78125 1238.410156 602.730469 1238.410156 602.730469 C 1238.410156 602.730469 1237.703125 607.246094 1243.359375 607.136719 C 1249.070312 607.027344 1269.136719 594.792969 1274.355469 594.574219 C 1279.578125 594.355469 1290.128906 589.898438 1290.128906 589.898438 C 1294.914062 592.238281 1297.414062 589.515625 1297.414062 589.515625 C 1304.050781 590.0625 1318.132812 589.246094 1321.832031 591.910156 C 1325.53125 594.574219 1328.140625 597.566406 1328.140625 597.566406 C 1327.921875 599.089844 1327.921875 600.558594 1327.921875 600.558594 C 1320.636719 611.269531 1323.953125 620.839844 1326.019531 624.269531 C 1328.03125 627.695312 1333.6875 629.378906 1346.683594 626.550781 C 1364.523438 623.125 1370.992188 610.671875 1370.015625 600.664062 Z M 1015.222656 393.632812 C 1015.605469 391.726562 1016.636719 391.183594 1016.636719 391.183594 C 1016.636719 391.183594 1018.542969 394.882812 1020.824219 396.296875 C 1023.109375 397.65625 1026.316406 398.144531 1027.675781 396.839844 C 1028.984375 395.480469 1025.828125 396.078125 1023.761719 395.480469 C 1021.695312 394.882812 1019.847656 390.207031 1019.792969 387.433594 C 1019.738281 384.660156 1022.457031 380.851562 1022.457031 380.851562 L 1030.070312 384.710938 C 1030.070312 384.710938 1032.464844 390.75 1032.082031 393.085938 C 1031.703125 395.425781 1028.382812 400.210938 1027.242188 400.917969 C 1026.15625 401.625 1022.511719 403.476562 1019.628906 401.460938 C 1016.746094 399.449219 1014.84375 395.589844 1015.222656 393.632812 Z M 1031.972656 421.257812 C 1031.320312 421.585938 1030.996094 422.507812 1030.832031 423.921875 C 1024.957031 423.703125 1019.355469 419.84375 1017.5625 418.15625 C 1015.222656 415.984375 1014.625 416.851562 1012.125 414.296875 C 1011.851562 414.023438 1011.582031 413.808594 1011.308594 413.589844 C 1011.472656 407.28125 1011.582031 403.09375 1011.582031 403.09375 C 1011.582031 403.09375 1017.886719 406.03125 1020.28125 406.410156 C 1022.621094 406.792969 1029.851562 405.378906 1032.136719 402.605469 C 1034.3125 399.941406 1036.597656 394.230469 1036.488281 392.378906 C 1038.390625 400.15625 1038.390625 406.300781 1039.96875 413.316406 C 1037.464844 416.582031 1034.855469 419.84375 1031.972656 421.257812 Z M 1031.972656 421.257812 "/></svg>