<svg xmlns="http://www.w3.org/2000/svg" viewBox="1164 40 348 732"><path fill="#dbcdb2" d="M 1493.675781 273.195312 C 1492.398438 268.34375 1491.0625 263.503906 1489.757812 258.652344 C 1489.445312 257.496094 1489 256.382812 1489.34375 255.089844 C 1489.492188 254.542969 1489.207031 253.710938 1488.835938 253.222656 C 1485.066406 248.371094 1484.503906 242.671875 1482.886719 236.839844 C 1480.941406 237.34375 1479.222656 237.789062 1477.21875 238.308594 C 1475.898438 234.941406 1474.605469 231.644531 1473.316406 228.335938 C 1474.175781 227.773438 1474.785156 227.386719 1475.40625 226.984375 C 1473.183594 219.328125 1468.894531 212.234375 1468.0625 204.164062 C 1465.925781 199.015625 1462.617188 194.191406 1460.671875 188.996094 C 1466.074219 182.675781 1462.734375 183.90625 1457.140625 181.371094 C 1456.324219 181.058594 1455.640625 180.644531 1455.714844 179.574219 C 1456.398438 177.585938 1441.738281 173.03125 1439.703125 171.367188 L 1443.785156 121.820312 C 1444.171875 121.777344 1445.179688 122.132812 1445.210938 121.464844 C 1445.210938 121.464844 1446.871094 102.855469 1446.871094 102.855469 C 1446.902344 102.589844 1446.695312 102.367188 1446.425781 102.351562 L 1439.066406 101.847656 C 1438.816406 101.832031 1438.605469 102.023438 1438.578125 102.261719 L 1436.78125 120.871094 C 1436.707031 121.539062 1437.730469 121.375 1438.132812 121.433594 L 1434.824219 157.078125 C 1432.523438 157.671875 1430.296875 163.535156 1429.941406 167.671875 C 1422.90625 165.0625 1415.664062 162.953125 1408.71875 160.136719 C 1398.464844 156.394531 1395.914062 146.246094 1396.375 136.246094 C 1396.359375 135.070312 1395.929688 134.195312 1394.996094 133.527344 C 1393.226562 132.253906 1391.820312 130.425781 1389.296875 130.117188 C 1390.203125 127.296875 1391.015625 124.640625 1391.96875 122.027344 C 1392.085938 121.6875 1392.828125 121.359375 1393.273438 121.359375 C 1394.625 121.375 1395.648438 120.753906 1396.464844 119.816406 C 1400.441406 115.1875 1403.246094 110.082031 1402.605469 103.671875 C 1402.445312 101.964844 1402.074219 100.496094 1399.90625 100.140625 C 1405.011719 98.492188 1417.195312 96.625 1411.894531 88.953125 C 1407.28125 82.214844 1405.367188 74.066406 1401.777344 66.796875 C 1394.921875 50.355469 1375.332031 43.675781 1358.757812 47.476562 C 1342.105469 50.371094 1332.195312 64.617188 1327.179688 79.722656 C 1326.035156 82.71875 1324.761719 85.628906 1322.921875 88.285156 C 1322.042969 89.960938 1319.730469 92.511719 1321.644531 94.191406 C 1323.394531 95.554688 1321.820312 97.738281 1321.613281 99.457031 C 1305.648438 103.984375 1291.949219 110.039062 1276.265625 113.390625 C 1271.976562 115.394531 1270.433594 116.566406 1266.902344 118.617188 C 1260.65625 123.46875 1253.25 126.792969 1246.511719 130.589844 L 1238.320312 136.941406 C 1236.601562 134.953125 1235.085938 133.007812 1231.613281 130.589844 C 1227.546875 133.039062 1220.160156 140.429688 1217.636719 143.753906 C 1209.488281 154.480469 1196.121094 163.148438 1187.558594 173.566406 C 1181.265625 181.222656 1173.238281 192.441406 1170.757812 198.953125 C 1167.820312 210.113281 1177.554688 220.085938 1186.429688 225.308594 C 1192.453125 228.738281 1199.828125 227.921875 1206.523438 228.5 C 1217.753906 228.425781 1229.105469 229.019531 1240.296875 227.816406 C 1251.722656 225.636719 1263.757812 225.117188 1274.738281 221.226562 C 1277.363281 220.21875 1281.027344 218.792969 1283.046875 221.421875 C 1284.679688 223.601562 1286.800781 225.621094 1288.492188 227.726562 C 1287.070312 231.363281 1286.636719 234.703125 1287.351562 238.441406 C 1288.539062 244.898438 1290.050781 251.308594 1291.296875 257.746094 C 1284.902344 257.4375 1278.921875 257.808594 1273.550781 261.871094 C 1270.035156 264.574219 1266.175781 267.15625 1265.539062 271.890625 C 1264.675781 274.695312 1264.425781 279.976562 1262.226562 281.832031 C 1260.3125 282.542969 1260.3125 283.953125 1260.164062 285.480469 C 1259.75 290.113281 1259.304688 294.726562 1258.042969 299.222656 C 1257.671875 300.558594 1257.496094 301.96875 1258.414062 303.171875 C 1259.125 304.121094 1259.15625 305.070312 1258.976562 306.183594 C 1257.582031 315.234375 1255.890625 324.136719 1254.734375 333.234375 C 1256.457031 333.679688 1258.101562 334.109375 1259.644531 334.496094 C 1260.195312 333.753906 1260.460938 332.980469 1260.921875 332.847656 C 1263.59375 332.0625 1266.324219 331.425781 1269.394531 332.210938 C 1269.21875 335.207031 1268.339844 337.714844 1267.585938 340.535156 C 1267.15625 342.347656 1267.570312 343.234375 1269.246094 344.066406 C 1273.386719 346.828125 1278.980469 341.632812 1279.382812 345.089844 C 1279.664062 346.515625 1278.816406 347.375 1277.882812 348.191406 C 1276.207031 349.675781 1275.539062 351.398438 1276.769531 353.445312 C 1277.617188 354.8125 1276.355469 355.984375 1275.820312 357.171875 C 1268.117188 371.074219 1263.917969 368.402344 1277.363281 374.785156 C 1272.867188 386.003906 1269.039062 384.296875 1278.582031 388.898438 C 1282.335938 390.589844 1282.023438 391.582031 1284.53125 386.90625 C 1285.75 384.636719 1286.785156 382.292969 1287.988281 379.816406 C 1289.382812 380.230469 1290.734375 380.644531 1292.246094 381.105469 C 1294.371094 376.875 1295.808594 372.542969 1297.621094 368.195312 C 1298.496094 366.042969 1300.203125 364.648438 1302.117188 363.417969 C 1296.121094 375.792969 1289.976562 388.734375 1287.589844 402.488281 C 1291.921875 403.796875 1295.972656 405.011719 1300.140625 406.273438 C 1295.335938 439.558594 1296.789062 473.523438 1300.304688 506.882812 C 1301.269531 514.421875 1302.828125 521.886719 1303.792969 529.4375 C 1304.207031 532.671875 1306.257812 552.46875 1309.207031 553.539062 C 1311.359375 554.28125 1309.269531 561.015625 1308.183594 562.976562 C 1305.410156 568.511719 1302.5 569.710938 1305.589844 577.53125 C 1306.226562 579.789062 1306.167969 582.164062 1305.558594 584.433594 C 1305.1875 585.796875 1305.292969 597.3125 1306.582031 602.386719 C 1307.503906 605.238281 1305.039062 607.613281 1304.5625 610.222656 C 1303.09375 620.980469 1310.292969 628.550781 1307.382812 638.890625 C 1306.316406 646 1301.820312 654.132812 1306.671875 660.660156 C 1308.347656 662.917969 1309.996094 665.230469 1311.375 667.664062 C 1315.871094 676.226562 1322.164062 670.617188 1323.304688 676.066406 C 1325.339844 684.121094 1328.128906 691.929688 1331.320312 699.585938 C 1333.292969 704.527344 1333.664062 707.644531 1330.457031 712.273438 C 1328.011719 715.730469 1332.371094 716.945312 1331.261719 719.871094 C 1329.96875 723.296875 1330.042969 726.5625 1332.476562 729.589844 C 1329.730469 733.09375 1324.863281 735.15625 1324.09375 739.902344 C 1323.453125 743.539062 1323.515625 747.1875 1324.242188 750.796875 C 1324.671875 752.886719 1324.847656 753.019531 1326.957031 753.066406 C 1340.117188 752.933594 1353.3125 754.3125 1366.429688 752.859375 C 1368.269531 752.664062 1368.402344 752.398438 1368.566406 750.527344 C 1368.714844 748.878906 1368.804688 747.21875 1368.921875 745.363281 C 1370.449219 745.261719 1371.84375 745.1875 1373.417969 745.082031 C 1373.566406 746.789062 1373.671875 748.289062 1373.820312 749.785156 C 1373.996094 751.65625 1374.054688 751.789062 1375.957031 752.117188 C 1377.824219 752.441406 1379.726562 752.8125 1381.609375 752.796875 C 1393.066406 752.425781 1404.566406 753.109375 1415.945312 751.980469 C 1416.214844 741.742188 1418.425781 731.90625 1404.953125 731.105469 C 1403.304688 730.941406 1402.148438 730.019531 1401.210938 728.757812 C 1399.207031 726.117188 1396.582031 719.839844 1399.445312 717.183594 C 1400.558594 716.457031 1401.035156 715.03125 1400.589844 713.785156 C 1398.660156 708.382812 1399.222656 703.011719 1400.824219 697.640625 C 1403.199219 689.628906 1405.515625 681.613281 1407.84375 673.585938 C 1416.511719 672.578125 1417.28125 667.949219 1421.40625 661.550781 C 1423.101562 659.265625 1423.828125 656.863281 1423.382812 654.148438 C 1422.625 649.5625 1421.867188 644.992188 1421.183594 640.40625 C 1420.902344 638.535156 1420.546875 636.667969 1421.332031 634.796875 C 1424.925781 626.25 1426.363281 617.332031 1426.4375 608.070312 C 1425.890625 595.652344 1426.082031 582.535156 1420.976562 571.03125 C 1426.039062 568.09375 1425.28125 565.542969 1425.324219 560.394531 C 1425.238281 555.125 1426.378906 550.035156 1427.238281 544.871094 C 1431.335938 516.261719 1432.65625 487.296875 1435.742188 458.625 C 1437.34375 458.832031 1438.769531 459.144531 1440.179688 459.175781 C 1442.941406 459.234375 1442.941406 459.160156 1443.652344 456.414062 C 1443.679688 456.28125 1443.828125 456.191406 1444.023438 455.96875 C 1450.34375 457.632812 1447.925781 454.292969 1452.40625 453.90625 C 1454.722656 453.847656 1456.367188 452.988281 1456.578125 450.40625 C 1456.589844 450.273438 1456.738281 450.152344 1456.875 449.976562 C 1463.699219 448.789062 1459.617188 446.160156 1464.53125 444.453125 C 1466.875 443.550781 1468.105469 441.976562 1467.957031 439.214844 C 1467.839844 429.957031 1468.773438 420.59375 1471.328125 411.660156 C 1476.949219 411.4375 1482.484375 411.421875 1488.183594 410.949219 C 1484.980469 375.882812 1488.882812 340.816406 1487.515625 305.691406 C 1487.367188 299.566406 1486.582031 293.570312 1484.164062 287.855469 C 1483.300781 285.46875 1482.324219 283.167969 1482.128906 280.570312 C 1486.03125 279.886719 1489.046875 277.707031 1492.367188 275.957031 C 1494.089844 275.109375 1494.164062 275.09375 1493.675781 273.195312 Z M 1342.671875 137.863281 C 1340.625 138.902344 1339.703125 140.519531 1339.746094 142.832031 C 1339.4375 146.113281 1340.609375 152.464844 1337.449219 154.394531 C 1335.25 152.910156 1333.1875 154.171875 1331.140625 155.015625 C 1314.03125 163.445312 1305.320312 153.53125 1289.308594 156.382812 L 1289.308594 162.109375 C 1285.007812 159.261719 1277.421875 161.21875 1275.671875 163.980469 C 1275.226562 164.691406 1274.902344 165.476562 1274.171875 165.90625 C 1272.246094 167.035156 1271.101562 167.820312 1269.082031 166.902344 C 1267.882812 166.351562 1266.457031 166.785156 1265.773438 167.910156 C 1265.757812 167.925781 1265.757812 167.941406 1265.746094 167.957031 C 1264.898438 169.378906 1263.164062 169.957031 1261.679688 169.246094 C 1261.367188 169.097656 1261.011719 168.933594 1260.566406 168.757812 C 1258.785156 168.089844 1254.542969 170.390625 1253.605469 170.847656 C 1246.230469 174.085938 1239.199219 178.519531 1231.613281 180.984375 C 1238.988281 171.960938 1247.597656 164.4375 1254.46875 155.03125 C 1255.371094 154.777344 1253.636719 151.589844 1253.621094 151.589844 C 1258.191406 143.21875 1269.898438 148.351562 1276.964844 147.460938 C 1280.660156 146.972656 1284.324219 146.320312 1287.988281 145.636719 C 1295.363281 143.945312 1301.671875 139.417969 1308.570312 136.496094 C 1312.011719 135.324219 1312.175781 128.734375 1307.84375 129.179688 C 1301.878906 130.117188 1296.964844 133.261719 1291.269531 135.308594 C 1291.34375 134.761719 1291.296875 134.464844 1291.386719 134.402344 C 1293.863281 132.785156 1296.328125 131.15625 1298.835938 129.609375 C 1300.1875 128.78125 1301.746094 128.246094 1302.546875 126.703125 C 1302.679688 126.449219 1302.945312 126.167969 1303.199219 126.109375 C 1305.886719 125.484375 1307.546875 123.097656 1310.085938 122.207031 C 1311.6875 121.640625 1312.398438 120.351562 1312.324219 118.585938 C 1316.273438 117.960938 1318.855469 115.113281 1322.296875 113.570312 C 1323.855469 112.917969 1325.398438 112.324219 1326.320312 110.75 C 1327.90625 109.207031 1330.339844 109.875 1330.011719 106.519531 C 1331.839844 106.609375 1333.101562 107.5 1334.40625 108.347656 C 1333.8125 112.472656 1333.425781 121.417969 1338.753906 122.324219 C 1339.792969 122.457031 1340 123.289062 1340.179688 124.148438 C 1341.082031 128.574219 1342.984375 132.488281 1345.503906 136.230469 C 1344.480469 136.824219 1343.605469 137.386719 1342.671875 137.863281 Z M 1364.765625 701.589844 C 1364.605469 701.589844 1364.441406 701.601562 1364.277344 701.601562 C 1363.402344 696.945312 1363.386719 692.226562 1363.28125 687.503906 L 1363.757812 687.371094 C 1365.582031 689.867188 1364.46875 698.101562 1364.765625 701.589844 Z M 1366.382812 641.398438 C 1355.921875 631 1365.078125 631.175781 1367.039062 619.15625 C 1370.570312 623.933594 1370.347656 632.644531 1366.382812 641.398438 Z M 1372.351562 570.4375 C 1367.734375 576.714844 1365.507812 585.175781 1369.8125 592.164062 C 1371.355469 594.761719 1371.710938 596.898438 1369.410156 599.210938 C 1368.195312 600.800781 1368.074219 602.3125 1367.039062 604.332031 C 1365.730469 596.941406 1364.914062 589.6875 1362.527344 582.5625 C 1359.246094 574.921875 1370.804688 573.808594 1362.527344 560.378906 C 1360.121094 557.039062 1359.515625 557.78125 1362.125 553.996094 C 1363.625 551.652344 1365.210938 549.367188 1367.050781 546.621094 C 1367.410156 553.910156 1368.980469 560.320312 1372.4375 566.625 C 1373.136719 568.003906 1373.253906 569.148438 1372.351562 570.4375 Z M 1431.882812 352.824219 C 1430.28125 354.082031 1430.625 356.605469 1429.867188 358.433594 C 1428.277344 354.839844 1426.914062 351.234375 1426.347656 347.109375 C 1428.457031 346.871094 1430.132812 346.769531 1432.121094 346.382812 C 1434.007812 345.964844 1434.082031 345.953125 1434.140625 344.039062 C 1434.4375 341.542969 1437.449219 342.285156 1437.40625 338.207031 C 1437.539062 333.886719 1435.714844 329.734375 1434.777344 325.578125 C 1433.53125 324.035156 1431.75 323.976562 1429.984375 324.050781 C 1426.941406 323.960938 1427.0625 327.046875 1425.875 329.109375 C 1424.925781 323.8125 1428.117188 318.527344 1423.988281 314.152344 C 1424.910156 313.691406 1425.785156 313.261719 1426.792969 312.769531 C 1430.328125 320.355469 1430.921875 319.507812 1438.769531 318.796875 C 1438.324219 328.648438 1438.207031 338.785156 1441.011719 348.324219 C 1442.347656 352.082031 1443.191406 355.910156 1443.535156 359.871094 C 1443.800781 362.972656 1444.304688 366.058594 1444.75 369.144531 C 1446.085938 377.246094 1444.171875 385.304688 1442.820312 393.273438 C 1442.671875 393.257812 1442.523438 393.257812 1442.359375 393.246094 C 1441.648438 387.84375 1441.335938 382.382812 1440.714844 376.980469 C 1440.59375 375.925781 1440.757812 375.183594 1441.738281 374.726562 C 1443.472656 373.910156 1443.828125 372.410156 1443.609375 370.71875 C 1443.101562 367.097656 1441.320312 363.804688 1440.253906 360.332031 C 1439.703125 358.714844 1438.902344 357.289062 1437.640625 356.117188 C 1436.335938 354.007812 1434.628906 351.605469 1431.882812 352.824219 Z M 1440.359375 443.59375 C 1440.121094 441.203125 1438.636719 440.015625 1436.441406 439.722656 C 1436.484375 437.449219 1436.484375 437.449219 1439.824219 435.445312 C 1442.925781 438.429688 1443.519531 441.796875 1440.359375 443.59375 Z M 1443.445312 407.800781 C 1440.371094 409.269531 1436.972656 413.425781 1435.789062 415.355469 C 1435.519531 413.738281 1435.3125 412.519531 1435.089844 411.097656 C 1437.566406 410.191406 1441.605469 408.542969 1443.992188 407.207031 C 1443.949219 406.96875 1443.875 406.628906 1443.816406 406.15625 L 1447.167969 406.15625 C 1447.214844 406.273438 1447.273438 406.378906 1447.316406 406.496094 C 1446.515625 406.925781 1444.511719 407.179688 1443.445312 407.800781 Z M 1443.445312 407.800781 "/><path fill="#000000" d="M 1505.582031 285.3125 C 1504.304688 280.457031 1502.96875 275.617188 1501.664062 270.761719 C 1501.351562 269.605469 1500.910156 268.492188 1501.25 267.199219 C 1501.398438 266.648438 1501.117188 265.820312 1500.746094 265.328125 C 1496.976562 260.472656 1496.414062 254.773438 1494.796875 248.9375 C 1492.851562 249.441406 1491.132812 249.886719 1489.128906 250.40625 C 1487.808594 247.039062 1486.519531 243.742188 1485.226562 240.429688 C 1486.089844 239.867188 1486.695312 239.480469 1487.320312 239.078125 C 1485.09375 231.417969 1480.808594 224.320312 1479.976562 216.246094 C 1477.839844 211.09375 1474.53125 206.269531 1472.589844 201.070312 C 1477.988281 194.746094 1474.652344 195.980469 1469.058594 193.441406 C 1468.242188 193.128906 1467.558594 192.714844 1467.632812 191.644531 C 1468.316406 189.65625 1453.660156 185.097656 1451.625 183.433594 L 1455.707031 133.859375 C 1456.09375 133.816406 1457.101562 134.171875 1457.128906 133.503906 C 1457.128906 133.503906 1458.792969 114.886719 1458.792969 114.886719 C 1458.820312 114.621094 1458.613281 114.398438 1458.347656 114.382812 L 1450.988281 113.875 C 1450.738281 113.863281 1450.527344 114.054688 1450.5 114.292969 L 1448.703125 132.910156 C 1448.628906 133.578125 1449.652344 133.414062 1450.054688 133.476562 L 1446.746094 169.136719 C 1444.445312 169.730469 1442.222656 175.59375 1441.867188 179.738281 C 1434.832031 177.125 1427.59375 175.015625 1420.652344 172.195312 C 1410.402344 168.453125 1407.847656 158.296875 1408.308594 148.292969 C 1408.292969 147.117188 1407.863281 146.242188 1406.929688 145.574219 C 1405.164062 144.296875 1403.753906 142.472656 1401.234375 142.160156 C 1402.136719 139.339844 1402.953125 136.679688 1403.902344 134.070312 C 1404.023438 133.726562 1404.761719 133.402344 1405.207031 133.402344 C 1406.558594 133.414062 1407.582031 132.792969 1408.398438 131.855469 C 1412.375 127.222656 1415.175781 122.117188 1414.539062 115.703125 C 1414.375 113.996094 1414.003906 112.527344 1411.839844 112.167969 C 1416.941406 110.523438 1429.121094 108.652344 1423.824219 100.976562 C 1419.210938 94.234375 1417.296875 86.082031 1413.707031 78.808594 C 1406.855469 62.359375 1387.273438 55.675781 1370.703125 59.476562 C 1354.058594 62.375 1344.148438 76.625 1339.132812 91.742188 C 1337.992188 94.738281 1336.714844 97.648438 1334.875 100.308594 C 1334 101.984375 1331.6875 104.539062 1333.601562 106.214844 C 1335.351562 107.582031 1333.777344 109.765625 1333.570312 111.488281 C 1317.609375 116.015625 1303.914062 122.074219 1288.234375 125.425781 C 1283.949219 127.433594 1282.40625 128.605469 1278.875 130.652344 C 1272.628906 135.507812 1265.226562 138.835938 1258.492188 142.636719 L 1250.300781 148.988281 C 1248.582031 147 1247.066406 145.054688 1243.597656 142.636719 C 1239.53125 145.085938 1232.144531 152.480469 1229.621094 155.804688 C 1221.476562 166.539062 1208.109375 175.207031 1199.550781 185.632812 C 1193.261719 193.292969 1185.234375 204.515625 1182.757812 211.035156 C 1179.820312 222.199219 1189.554688 232.175781 1198.425781 237.402344 C 1204.445312 240.832031 1211.820312 240.015625 1218.511719 240.59375 C 1229.742188 240.519531 1241.089844 241.113281 1252.273438 239.910156 C 1263.699219 237.730469 1275.730469 237.210938 1286.707031 233.320312 C 1289.332031 232.308594 1292.996094 230.882812 1295.015625 233.511719 C 1296.644531 235.695312 1298.769531 237.714844 1300.457031 239.820312 C 1299.035156 243.460938 1298.605469 246.800781 1299.316406 250.542969 C 1300.503906 257 1302.015625 263.414062 1303.261719 269.855469 C 1296.867188 269.546875 1290.890625 269.917969 1285.519531 273.984375 C 1282.003906 276.6875 1278.148438 279.269531 1277.507812 284.007812 C 1276.648438 286.8125 1276.398438 292.097656 1274.199219 293.953125 C 1272.289062 294.667969 1272.289062 296.078125 1272.140625 297.605469 C 1271.722656 302.238281 1271.277344 306.855469 1270.015625 311.355469 C 1269.648438 312.691406 1269.46875 314.101562 1270.386719 315.304688 C 1271.101562 316.253906 1271.128906 317.203125 1270.953125 318.316406 C 1269.558594 327.375 1267.867188 336.28125 1266.710938 345.382812 C 1268.429688 345.828125 1270.078125 346.257812 1271.621094 346.644531 C 1272.167969 345.902344 1272.4375 345.128906 1272.894531 344.996094 C 1275.566406 344.210938 1278.296875 343.570312 1281.367188 344.359375 C 1281.1875 347.355469 1280.3125 349.867188 1279.554688 352.6875 C 1279.125 354.5 1279.542969 355.390625 1281.21875 356.222656 C 1285.355469 358.980469 1290.949219 353.785156 1291.351562 357.246094 C 1291.632812 358.671875 1290.785156 359.53125 1289.851562 360.347656 C 1288.175781 361.832031 1287.507812 363.554688 1288.738281 365.605469 C 1289.585938 366.96875 1288.324219 368.144531 1287.789062 369.332031 C 1280.089844 383.242188 1275.890625 380.570312 1289.332031 386.953125 C 1284.835938 398.179688 1281.011719 396.46875 1290.550781 401.074219 C 1294.300781 402.765625 1293.992188 403.761719 1296.496094 399.082031 C 1297.714844 396.8125 1298.753906 394.464844 1299.953125 391.988281 C 1301.347656 392.402344 1302.699219 392.816406 1304.210938 393.277344 C 1306.332031 389.046875 1307.773438 384.710938 1309.582031 380.363281 C 1310.457031 378.207031 1312.164062 376.8125 1314.078125 375.582031 C 1308.082031 387.964844 1301.941406 400.910156 1299.554688 414.671875 C 1303.886719 415.980469 1307.9375 417.195312 1312.105469 418.457031 C 1307.296875 451.761719 1308.75 485.746094 1312.265625 519.121094 C 1313.230469 526.660156 1314.789062 534.128906 1315.753906 541.6875 C 1316.167969 544.921875 1318.214844 564.730469 1321.167969 565.796875 C 1323.320312 566.539062 1321.226562 573.28125 1320.144531 575.242188 C 1317.371094 580.777344 1314.464844 581.980469 1317.546875 589.804688 C 1318.1875 592.0625 1318.128906 594.4375 1317.519531 596.710938 C 1317.148438 598.074219 1317.25 609.597656 1318.542969 614.671875 C 1319.460938 617.523438 1317 619.898438 1316.523438 622.511719 C 1315.054688 633.277344 1322.25 640.847656 1319.34375 651.195312 C 1318.277344 658.308594 1313.78125 666.445312 1318.632812 672.976562 C 1320.308594 675.234375 1321.953125 677.550781 1323.335938 679.984375 C 1327.828125 688.550781 1334.121094 682.9375 1335.261719 688.386719 C 1337.292969 696.449219 1340.082031 704.257812 1343.273438 711.921875 C 1345.246094 716.863281 1345.617188 719.980469 1342.410156 724.613281 C 1339.964844 728.074219 1344.324219 729.289062 1343.214844 732.214844 C 1341.921875 735.644531 1341.996094 738.910156 1344.429688 741.941406 C 1341.683594 745.445312 1336.820312 747.507812 1336.046875 752.257812 C 1335.410156 755.894531 1335.46875 759.546875 1336.195312 763.15625 C 1336.625 765.25 1336.804688 765.382812 1338.910156 765.429688 C 1352.070312 765.292969 1365.257812 766.675781 1378.371094 765.21875 C 1380.210938 765.027344 1380.34375 764.761719 1380.507812 762.890625 C 1380.65625 761.242188 1380.746094 759.578125 1380.863281 757.722656 C 1382.390625 757.617188 1383.785156 757.542969 1385.359375 757.441406 C 1385.507812 759.148438 1385.609375 760.648438 1385.757812 762.148438 C 1385.9375 764.015625 1385.996094 764.152344 1387.894531 764.476562 C 1389.765625 764.804688 1391.664062 765.175781 1393.546875 765.160156 C 1405 764.789062 1416.496094 765.472656 1427.875 764.34375 C 1428.144531 754.101562 1430.351562 744.257812 1416.882812 743.453125 C 1415.238281 743.292969 1414.078125 742.371094 1413.144531 741.109375 C 1411.140625 738.464844 1408.515625 732.1875 1411.378906 729.527344 C 1412.492188 728.800781 1412.96875 727.375 1412.523438 726.128906 C 1410.59375 720.722656 1411.15625 715.351562 1412.757812 709.976562 C 1415.132812 701.957031 1417.445312 693.941406 1419.777344 685.910156 C 1428.441406 684.898438 1429.210938 680.265625 1433.335938 673.867188 C 1435.027344 671.582031 1435.753906 669.175781 1435.308594 666.460938 C 1434.550781 661.871094 1433.796875 657.300781 1433.113281 652.710938 C 1432.832031 650.839844 1432.476562 648.96875 1433.261719 647.097656 C 1436.851562 638.546875 1438.289062 629.625 1438.363281 620.359375 C 1437.816406 607.933594 1438.007812 594.808594 1432.90625 583.300781 C 1437.964844 580.363281 1437.207031 577.808594 1437.25 572.65625 C 1437.164062 567.386719 1438.304688 562.292969 1439.164062 557.128906 C 1443.261719 528.503906 1444.582031 499.523438 1447.664062 470.839844 C 1449.269531 471.046875 1450.691406 471.359375 1452.101562 471.386719 C 1454.859375 471.445312 1454.859375 471.371094 1455.574219 468.625 C 1455.601562 468.492188 1455.75 468.402344 1455.945312 468.179688 C 1462.261719 469.84375 1459.84375 466.503906 1464.324219 466.117188 C 1466.640625 466.058594 1468.285156 465.195312 1468.492188 462.613281 C 1468.507812 462.480469 1468.65625 462.359375 1468.789062 462.183594 C 1475.613281 460.996094 1471.535156 458.367188 1476.445312 456.660156 C 1478.789062 455.753906 1480.019531 454.179688 1479.871094 451.417969 C 1479.753906 442.152344 1480.6875 432.785156 1483.238281 423.847656 C 1488.863281 423.625 1494.394531 423.609375 1500.09375 423.136719 C 1496.886719 388.050781 1500.789062 352.96875 1499.425781 317.828125 C 1499.277344 311.695312 1498.492188 305.699219 1496.070312 299.980469 C 1495.210938 297.589844 1494.234375 295.289062 1494.039062 292.691406 C 1497.941406 292.007812 1500.953125 289.828125 1504.277344 288.074219 C 1505.996094 287.226562 1506.070312 287.214844 1505.582031 285.3125 Z M 1354.621094 149.910156 C 1352.574219 150.949219 1351.652344 152.566406 1351.699219 154.882812 C 1351.386719 158.164062 1352.558594 164.519531 1349.398438 166.449219 C 1347.203125 164.964844 1345.140625 166.226562 1343.09375 167.074219 C 1325.988281 175.507812 1317.28125 165.589844 1301.273438 168.4375 L 1301.273438 174.167969 C 1296.972656 171.320312 1289.390625 173.277344 1287.640625 176.039062 C 1287.195312 176.753906 1286.871094 177.539062 1286.144531 177.96875 C 1284.214844 179.097656 1283.070312 179.886719 1281.054688 178.964844 C 1279.851562 178.414062 1278.429688 178.847656 1277.746094 179.976562 C 1277.730469 179.988281 1277.730469 180.003906 1277.714844 180.019531 C 1276.871094 181.445312 1275.136719 182.023438 1273.652344 181.3125 C 1273.339844 181.164062 1272.984375 181 1272.539062 180.820312 C 1270.757812 180.152344 1266.515625 182.453125 1265.582031 182.914062 C 1258.207031 186.152344 1251.175781 190.589844 1243.597656 193.054688 C 1250.96875 184.027344 1259.574219 176.5 1266.441406 167.085938 C 1267.347656 166.835938 1265.613281 163.644531 1265.597656 163.644531 C 1270.164062 155.269531 1281.871094 160.40625 1288.933594 159.515625 C 1292.625 159.027344 1296.289062 158.371094 1299.953125 157.691406 C 1307.328125 155.996094 1313.632812 151.46875 1320.53125 148.542969 C 1323.972656 147.371094 1324.136719 140.777344 1319.804688 141.226562 C 1313.839844 142.160156 1308.929688 145.308594 1303.234375 147.355469 C 1303.308594 146.808594 1303.261719 146.511719 1303.351562 146.449219 C 1305.828125 144.832031 1308.292969 143.199219 1310.796875 141.65625 C 1312.148438 140.824219 1313.707031 140.289062 1314.507812 138.746094 C 1314.640625 138.492188 1314.90625 138.210938 1315.160156 138.152344 C 1317.84375 137.527344 1319.507812 135.136719 1322.042969 134.246094 C 1323.644531 133.683594 1324.359375 132.390625 1324.285156 130.625 C 1328.230469 130 1330.8125 127.148438 1334.253906 125.605469 C 1335.808594 124.953125 1337.351562 124.359375 1338.273438 122.785156 C 1339.859375 121.242188 1342.292969 121.910156 1341.96875 118.554688 C 1343.792969 118.644531 1345.050781 119.535156 1346.359375 120.378906 C 1345.765625 124.507812 1345.378906 133.460938 1350.703125 134.367188 C 1351.742188 134.5 1351.949219 135.332031 1352.128906 136.191406 C 1353.035156 140.617188 1354.933594 144.535156 1357.453125 148.277344 C 1356.429688 148.871094 1355.554688 149.433594 1354.621094 149.910156 Z M 1376.710938 713.925781 C 1376.546875 713.925781 1376.382812 713.9375 1376.222656 713.9375 C 1375.34375 709.277344 1375.332031 704.554688 1375.226562 699.835938 L 1375.703125 699.703125 C 1377.527344 702.195312 1376.414062 710.433594 1376.710938 713.925781 Z M 1378.328125 653.707031 C 1367.867188 643.296875 1377.023438 643.476562 1378.980469 631.449219 C 1382.511719 636.230469 1382.289062 644.945312 1378.328125 653.707031 Z M 1384.289062 582.707031 C 1379.675781 588.988281 1377.453125 597.453125 1381.753906 604.445312 C 1383.296875 607.042969 1383.652344 609.179688 1381.355469 611.496094 C 1380.136719 613.085938 1380.019531 614.597656 1378.980469 616.617188 C 1377.675781 609.226562 1376.859375 601.964844 1374.46875 594.839844 C 1371.191406 587.191406 1382.75 586.078125 1374.46875 572.640625 C 1372.066406 569.300781 1371.457031 570.042969 1374.070312 566.257812 C 1375.566406 563.914062 1377.15625 561.625 1378.996094 558.878906 C 1379.351562 566.167969 1380.921875 572.582031 1384.378906 578.894531 C 1385.078125 580.273438 1385.195312 581.417969 1384.289062 582.707031 Z M 1443.808594 364.980469 C 1442.207031 366.242188 1442.546875 368.765625 1441.792969 370.59375 C 1440.203125 367 1438.839844 363.390625 1438.273438 359.265625 C 1440.382812 359.027344 1442.058594 358.921875 1444.046875 358.535156 C 1445.929688 358.121094 1446.003906 358.105469 1446.0625 356.191406 C 1446.359375 353.695312 1449.371094 354.4375 1449.328125 350.355469 C 1449.460938 346.035156 1447.636719 341.878906 1446.703125 337.722656 C 1445.457031 336.175781 1443.675781 336.117188 1441.910156 336.191406 C 1438.867188 336.101562 1438.988281 339.191406 1437.800781 341.253906 C 1436.851562 335.953125 1440.039062 330.667969 1435.917969 326.289062 C 1436.835938 325.828125 1437.710938 325.398438 1438.71875 324.910156 C 1442.25 332.496094 1442.84375 331.648438 1450.691406 330.9375 C 1450.246094 340.796875 1450.128906 350.933594 1452.933594 360.480469 C 1454.265625 364.238281 1455.113281 368.070312 1455.453125 372.03125 C 1455.722656 375.136719 1456.226562 378.222656 1456.671875 381.3125 C 1458.003906 389.417969 1456.09375 397.480469 1454.742188 405.453125 C 1454.59375 405.4375 1454.445312 405.4375 1454.28125 405.421875 C 1453.570312 400.019531 1453.257812 394.554688 1452.636719 389.152344 C 1452.515625 388.097656 1452.679688 387.355469 1453.660156 386.894531 C 1455.394531 386.078125 1455.75 384.578125 1455.527344 382.886719 C 1455.023438 379.261719 1453.242188 375.96875 1452.175781 372.492188 C 1451.625 370.875 1450.824219 369.449219 1449.566406 368.277344 C 1448.257812 366.167969 1446.554688 363.761719 1443.808594 364.980469 Z M 1452.28125 455.796875 C 1452.042969 453.40625 1450.558594 452.21875 1448.363281 451.921875 C 1448.40625 449.652344 1448.40625 449.652344 1451.746094 447.648438 C 1454.847656 450.632812 1455.4375 454 1452.28125 455.796875 Z M 1455.363281 419.988281 C 1452.292969 421.457031 1448.898438 425.613281 1447.710938 427.542969 C 1447.441406 425.925781 1447.234375 424.710938 1447.011719 423.285156 C 1449.492188 422.378906 1453.527344 420.730469 1455.914062 419.394531 C 1455.871094 419.15625 1455.796875 418.816406 1455.734375 418.339844 L 1459.089844 418.339844 C 1459.132812 418.457031 1459.191406 418.5625 1459.238281 418.679688 C 1458.4375 419.113281 1456.433594 419.363281 1455.363281 419.988281 Z M 1455.363281 419.988281 "/></svg>