<svg xmlns="http://www.w3.org/2000/svg" viewBox="-158 52 356 720"><path fill="#dbcdb2" d="M 190.050781 285.195312 C 188.773438 280.34375 187.441406 275.503906 186.132812 270.652344 C 185.820312 269.496094 185.378906 268.382812 185.71875 267.089844 C 185.867188 266.542969 185.585938 265.710938 185.214844 265.222656 C 181.445312 260.371094 180.878906 254.671875 179.261719 248.839844 C 177.320312 249.34375 175.597656 249.789062 173.59375 250.308594 C 172.273438 246.941406 170.984375 243.644531 169.691406 240.335938 C 170.550781 239.773438 171.160156 239.386719 171.785156 238.984375 C 169.558594 231.328125 165.269531 224.234375 164.4375 216.164062 C 162.300781 211.015625 158.992188 206.191406 157.050781 200.996094 C 162.449219 194.675781 159.113281 195.90625 153.515625 193.371094 C 152.699219 193.058594 152.019531 192.644531 152.09375 191.574219 C 152.773438 189.585938 138.113281 185.03125 136.082031 183.367188 L 140.160156 133.820312 C 140.546875 133.777344 141.558594 134.132812 141.585938 133.464844 C 141.585938 133.464844 143.25 114.855469 143.25 114.855469 C 143.277344 114.589844 143.070312 114.367188 142.804688 114.351562 L 135.441406 113.847656 C 135.191406 113.832031 134.984375 114.023438 134.953125 114.261719 L 133.15625 132.871094 C 133.082031 133.539062 134.109375 133.375 134.507812 133.433594 L 131.199219 169.078125 C 128.898438 169.671875 126.671875 175.535156 126.316406 179.671875 C 119.285156 177.0625 112.042969 174.953125 105.097656 172.136719 C 94.84375 168.394531 92.289062 158.246094 92.75 148.246094 C 92.734375 147.070312 92.304688 146.195312 91.371094 145.527344 C 89.605469 144.253906 88.195312 142.425781 85.671875 142.117188 C 86.578125 139.296875 87.394531 136.640625 88.34375 134.027344 C 88.460938 133.6875 89.203125 133.359375 89.648438 133.359375 C 91 133.375 92.023438 132.753906 92.839844 131.816406 C 96.816406 127.1875 99.621094 122.082031 98.984375 115.671875 C 98.820312 113.964844 98.449219 112.496094 96.28125 112.140625 C 101.386719 110.492188 113.570312 108.625 108.273438 100.953125 C 103.65625 94.214844 101.742188 86.066406 98.152344 78.796875 C 91.296875 62.355469 71.707031 55.675781 55.132812 59.476562 C 38.484375 62.371094 28.570312 76.617188 23.554688 91.722656 C 22.414062 94.71875 21.136719 97.628906 19.296875 100.285156 C 18.421875 101.960938 16.105469 104.511719 18.019531 106.191406 C 19.773438 107.554688 18.199219 109.738281 17.992188 111.457031 C 2.023438 115.984375 -11.671875 122.039062 -27.359375 125.390625 C -31.644531 127.394531 -33.191406 128.566406 -36.722656 130.617188 C -42.96875 135.46875 -50.375 138.792969 -57.109375 142.589844 L -65.300781 148.941406 C -67.023438 146.953125 -68.535156 145.007812 -72.007812 142.589844 C -76.074219 145.039062 -83.464844 152.429688 -85.988281 155.753906 C -94.132812 166.480469 -107.503906 175.148438 -116.066406 185.566406 C -122.359375 193.222656 -130.386719 204.441406 -132.863281 210.953125 C -135.800781 222.113281 -126.066406 232.085938 -117.195312 237.308594 C -111.167969 240.738281 -103.792969 239.921875 -97.101562 240.5 C -85.867188 240.425781 -74.515625 241.019531 -63.328125 239.816406 C -51.902344 237.636719 -39.867188 237.117188 -28.886719 233.226562 C -26.257812 232.21875 -22.59375 230.792969 -20.578125 233.421875 C -18.945312 235.601562 -16.820312 237.621094 -15.128906 239.726562 C -16.554688 243.363281 -16.984375 246.703125 -16.273438 250.441406 C -15.085938 256.898438 -13.570312 263.308594 -12.324219 269.746094 C -18.722656 269.4375 -24.703125 269.808594 -30.074219 273.871094 C -33.589844 276.574219 -37.449219 279.15625 -38.085938 283.890625 C -38.945312 286.695312 -39.199219 291.976562 -41.394531 293.832031 C -43.308594 294.542969 -43.308594 295.953125 -43.457031 297.480469 C -43.875 302.113281 -44.320312 306.726562 -45.582031 311.222656 C -45.953125 312.558594 -46.128906 313.96875 -45.210938 315.171875 C -44.496094 316.121094 -44.46875 317.070312 -44.644531 318.183594 C -46.039062 327.234375 -47.730469 336.136719 -48.890625 345.234375 C -47.167969 345.679688 -45.519531 346.109375 -43.976562 346.496094 C -43.429688 345.753906 -43.160156 344.980469 -42.703125 344.847656 C -40.03125 344.0625 -37.300781 343.425781 -34.226562 344.210938 C -34.40625 347.207031 -35.28125 349.714844 -36.039062 352.535156 C -36.46875 354.347656 -36.054688 355.234375 -34.375 356.066406 C -30.238281 358.828125 -24.640625 353.632812 -24.242188 357.089844 C -23.960938 358.515625 -24.804688 359.375 -25.738281 360.191406 C -27.417969 361.675781 -28.085938 363.398438 -26.851562 365.445312 C -26.007812 366.8125 -27.269531 367.984375 -27.804688 369.171875 C -35.503906 383.074219 -39.703125 380.402344 -26.257812 386.785156 C -30.757812 398.003906 -34.585938 396.296875 -25.042969 400.898438 C -21.289062 402.589844 -21.601562 403.582031 -19.09375 398.90625 C -17.875 396.636719 -16.835938 394.292969 -15.632812 391.816406 C -14.238281 392.230469 -12.890625 392.644531 -11.375 393.105469 C -9.253906 388.875 -7.816406 384.542969 -6.003906 380.195312 C -5.128906 378.042969 -3.421875 376.648438 -1.507812 375.417969 C -7.503906 387.792969 -13.644531 400.734375 -16.035156 414.488281 C -11.703125 415.796875 -7.652344 417.011719 -3.480469 418.273438 C -8.289062 451.558594 -6.835938 485.523438 -3.316406 518.882812 C -2.355469 526.421875 -0.796875 533.886719 0.167969 541.4375 C 0.585938 544.671875 2.632812 564.46875 5.585938 565.539062 C 7.738281 566.28125 5.644531 573.015625 4.5625 574.976562 C 1.785156 580.511719 -1.121094 581.710938 1.964844 589.53125 C 2.601562 591.789062 2.542969 594.164062 1.933594 596.433594 C 1.5625 597.796875 1.667969 609.3125 2.957031 614.386719 C 3.878906 617.238281 1.414062 619.613281 0.941406 622.222656 C -0.527344 632.980469 6.667969 640.550781 3.761719 650.890625 C 2.691406 658 -1.804688 666.132812 3.046875 672.660156 C 4.726562 674.917969 6.371094 677.230469 7.75 679.664062 C 12.25 688.226562 18.539062 682.617188 19.683594 688.066406 C 21.714844 696.121094 24.503906 703.929688 27.695312 711.585938 C 29.667969 716.527344 30.039062 719.644531 26.835938 724.273438 C 24.386719 727.730469 28.75 728.945312 27.636719 731.871094 C 26.34375 735.296875 26.417969 738.5625 28.851562 741.589844 C 26.109375 745.09375 21.242188 747.15625 20.46875 751.902344 C 19.832031 755.539062 19.890625 759.1875 20.617188 762.796875 C 21.046875 764.886719 21.226562 765.019531 23.332031 765.066406 C 36.496094 764.933594 49.6875 766.3125 62.804688 764.859375 C 64.644531 764.664062 64.777344 764.398438 64.941406 762.527344 C 65.089844 760.878906 65.179688 759.21875 65.296875 757.363281 C 66.828125 757.261719 68.222656 757.1875 69.792969 757.082031 C 69.941406 758.789062 70.046875 760.289062 70.195312 761.785156 C 70.375 763.65625 70.433594 763.789062 72.332031 764.117188 C 74.203125 764.441406 76.101562 764.8125 77.984375 764.796875 C 89.441406 764.425781 100.941406 765.109375 112.324219 763.980469 C 112.589844 753.742188 114.800781 743.90625 101.328125 743.101562 C 99.679688 742.941406 98.523438 742.019531 97.589844 740.757812 C 95.585938 738.117188 92.957031 731.839844 95.824219 729.183594 C 96.933594 728.457031 97.410156 727.03125 96.964844 725.785156 C 95.035156 720.382812 95.601562 715.011719 97.203125 709.640625 C 99.578125 701.628906 101.890625 693.613281 104.222656 685.585938 C 112.886719 684.578125 113.660156 679.949219 117.785156 673.550781 C 119.476562 671.265625 120.203125 668.863281 119.757812 666.148438 C 119 661.5625 118.246094 656.992188 117.5625 652.40625 C 117.28125 650.535156 116.921875 648.667969 117.710938 646.796875 C 121.300781 638.25 122.742188 629.332031 122.816406 620.070312 C 122.265625 607.652344 122.457031 594.535156 117.355469 583.03125 C 122.414062 580.09375 121.65625 577.542969 121.703125 572.394531 C 121.613281 567.125 122.753906 562.035156 123.617188 556.871094 C 127.710938 528.261719 129.03125 499.296875 132.117188 470.625 C 133.722656 470.832031 135.144531 471.144531 136.554688 471.175781 C 139.316406 471.234375 139.316406 471.160156 140.027344 468.414062 C 140.058594 468.28125 140.207031 468.191406 140.398438 467.96875 C 146.722656 469.632812 144.300781 466.292969 148.785156 465.90625 C 151.097656 465.847656 152.746094 464.988281 152.953125 462.40625 C 152.96875 462.273438 153.117188 462.152344 153.25 461.976562 C 160.074219 460.789062 155.996094 458.160156 160.90625 456.453125 C 163.25 455.550781 164.484375 453.976562 164.335938 451.214844 C 164.214844 441.957031 165.152344 432.59375 167.703125 423.660156 C 173.328125 423.4375 178.863281 423.421875 184.5625 422.949219 C 181.355469 387.882812 185.257812 352.816406 183.894531 317.691406 C 183.746094 311.566406 182.957031 305.570312 180.539062 299.855469 C 179.679688 297.46875 178.699219 295.167969 178.507812 292.570312 C 182.410156 291.886719 185.421875 289.707031 188.746094 287.957031 C 190.46875 287.109375 190.542969 287.09375 190.050781 285.195312 Z M 39.046875 149.863281 C 37 150.902344 36.078125 152.519531 36.125 154.832031 C 35.8125 158.113281 36.984375 164.464844 33.824219 166.394531 C 31.628906 164.910156 29.566406 166.171875 27.519531 167.015625 C 10.40625 175.445312 1.699219 165.53125 -14.3125 168.382812 L -14.3125 174.109375 C -18.617188 171.261719 -26.199219 173.21875 -27.953125 175.980469 C -28.398438 176.691406 -28.722656 177.476562 -29.449219 177.90625 C -31.378906 179.035156 -32.523438 179.820312 -34.539062 178.902344 C -35.742188 178.351562 -37.167969 178.785156 -37.847656 179.910156 C -37.863281 179.925781 -37.863281 179.941406 -37.878906 179.957031 C -38.722656 181.378906 -40.460938 181.957031 -41.945312 181.246094 C -42.257812 181.097656 -42.613281 180.933594 -43.058594 180.757812 C -44.839844 180.089844 -49.082031 182.390625 -50.015625 182.847656 C -57.390625 186.085938 -64.425781 190.519531 -72.007812 192.984375 C -64.632812 183.960938 -56.027344 176.4375 -49.15625 167.03125 C -48.25 166.777344 -49.988281 163.589844 -50.003906 163.589844 C -45.433594 155.21875 -33.722656 160.351562 -26.660156 159.460938 C -22.964844 158.972656 -19.300781 158.320312 -15.632812 157.636719 C -8.257812 155.945312 -1.953125 151.417969 4.945312 148.496094 C 8.390625 147.324219 8.554688 140.734375 4.21875 141.179688 C -1.746094 142.117188 -6.65625 145.261719 -12.355469 147.308594 C -12.28125 146.761719 -12.324219 146.464844 -12.238281 146.402344 C -9.757812 144.785156 -7.296875 143.15625 -4.789062 141.609375 C -3.4375 140.78125 -1.878906 140.246094 -1.078125 138.703125 C -0.945312 138.449219 -0.675781 138.167969 -0.425781 138.109375 C 2.261719 137.484375 3.921875 135.097656 6.460938 134.207031 C 8.0625 133.640625 8.777344 132.351562 8.703125 130.585938 C 12.648438 129.960938 15.230469 127.113281 18.671875 125.570312 C 20.230469 124.917969 21.773438 124.324219 22.695312 122.75 C 24.28125 121.207031 26.714844 121.875 26.390625 118.519531 C 28.214844 118.609375 29.476562 119.5 30.78125 120.347656 C 30.1875 124.472656 29.804688 133.417969 35.128906 134.324219 C 36.167969 134.457031 36.375 135.289062 36.554688 136.148438 C 37.460938 140.574219 39.359375 144.488281 41.882812 148.230469 C 40.859375 148.824219 39.984375 149.386719 39.046875 149.863281 Z M 61.144531 713.589844 C 60.980469 713.589844 60.816406 713.601562 60.652344 713.601562 C 59.777344 708.945312 59.761719 704.226562 59.660156 699.503906 L 60.132812 699.371094 C 61.960938 701.867188 60.847656 710.101562 61.144531 713.589844 Z M 62.761719 653.398438 C 52.300781 643 61.453125 643.175781 63.414062 631.15625 C 66.945312 635.933594 66.722656 644.644531 62.761719 653.398438 Z M 68.726562 582.4375 C 64.109375 588.714844 61.886719 597.175781 66.1875 604.164062 C 67.730469 606.761719 68.089844 608.898438 65.789062 611.210938 C 64.570312 612.800781 64.453125 614.3125 63.414062 616.332031 C 62.109375 608.941406 61.292969 601.6875 58.902344 594.5625 C 55.625 586.921875 67.183594 585.808594 58.902344 572.378906 C 56.5 569.039062 55.890625 569.78125 58.5 565.996094 C 60 563.652344 61.589844 561.367188 63.429688 558.621094 C 63.785156 565.910156 65.359375 572.320312 68.816406 578.625 C 69.511719 580.003906 69.632812 581.148438 68.726562 582.4375 Z M 128.261719 364.824219 C 126.660156 366.082031 127 368.605469 126.242188 370.433594 C 124.65625 366.839844 123.289062 363.234375 122.726562 359.109375 C 124.832031 358.871094 126.511719 358.769531 128.5 358.382812 C 130.382812 357.964844 130.457031 357.953125 130.515625 356.039062 C 130.8125 353.542969 133.824219 354.285156 133.78125 350.207031 C 133.914062 345.886719 132.089844 341.734375 131.15625 337.578125 C 129.90625 336.035156 128.128906 335.976562 126.363281 336.050781 C 123.320312 335.960938 123.4375 339.046875 122.25 341.109375 C 121.300781 335.8125 124.492188 330.527344 120.367188 326.152344 C 121.285156 325.691406 122.160156 325.261719 123.171875 324.769531 C 126.703125 332.355469 127.296875 331.507812 135.144531 330.796875 C 134.699219 340.648438 134.582031 350.785156 137.386719 360.324219 C 138.722656 364.082031 139.570312 367.910156 139.910156 371.871094 C 140.175781 374.972656 140.679688 378.058594 141.125 381.144531 C 142.460938 389.246094 140.546875 397.304688 139.199219 405.273438 C 139.050781 405.257812 138.902344 405.257812 138.738281 405.246094 C 138.023438 399.84375 137.714844 394.382812 137.089844 388.980469 C 136.972656 387.925781 137.136719 387.183594 138.113281 386.726562 C 139.851562 385.910156 140.207031 384.410156 139.984375 382.71875 C 139.480469 379.097656 137.699219 375.804688 136.628906 372.332031 C 136.082031 370.714844 135.28125 369.289062 134.019531 368.117188 C 132.710938 366.007812 131.007812 363.605469 128.261719 364.824219 Z M 136.734375 455.59375 C 136.496094 453.203125 135.011719 452.015625 132.816406 451.722656 C 132.859375 449.449219 132.859375 449.449219 136.199219 447.445312 C 139.300781 450.429688 139.894531 453.796875 136.734375 455.59375 Z M 139.820312 419.800781 C 136.75 421.269531 133.351562 425.425781 132.164062 427.355469 C 131.898438 425.738281 131.6875 424.519531 131.464844 423.097656 C 133.945312 422.191406 137.980469 420.542969 140.371094 419.207031 C 140.324219 418.96875 140.25 418.628906 140.191406 418.15625 L 143.546875 418.15625 C 143.589844 418.273438 143.648438 418.378906 143.695312 418.496094 C 142.890625 418.925781 140.890625 419.179688 139.820312 419.800781 Z M 139.820312 419.800781 "/><path fill="#000000" d="M 172.664062 285.3125 C 171.386719 280.457031 170.054688 275.617188 168.746094 270.761719 C 168.4375 269.605469 167.992188 268.492188 168.332031 267.199219 C 168.480469 266.648438 168.199219 265.820312 167.828125 265.328125 C 164.058594 260.472656 163.496094 254.773438 161.878906 248.9375 C 159.933594 249.441406 158.214844 249.886719 156.210938 250.40625 C 154.890625 247.039062 153.601562 243.742188 152.308594 240.429688 C 153.171875 239.867188 153.777344 239.480469 154.402344 239.078125 C 152.175781 231.417969 147.890625 224.320312 147.058594 216.246094 C 144.921875 211.09375 141.613281 206.269531 139.671875 201.070312 C 145.070312 194.746094 141.734375 195.980469 136.140625 193.441406 C 135.324219 193.128906 134.640625 192.714844 134.714844 191.644531 C 135.398438 189.65625 120.742188 185.097656 118.710938 183.433594 L 122.789062 133.859375 C 123.175781 133.816406 124.183594 134.171875 124.214844 133.503906 C 124.214844 133.503906 125.875 114.886719 125.875 114.886719 C 125.902344 114.621094 125.695312 114.398438 125.429688 114.382812 L 118.070312 113.875 C 117.820312 113.863281 117.609375 114.054688 117.582031 114.292969 L 115.785156 132.910156 C 115.710938 133.578125 116.734375 133.414062 117.136719 133.476562 L 113.828125 169.136719 C 111.527344 169.730469 109.304688 175.59375 108.949219 179.738281 C 101.914062 177.125 94.675781 175.015625 87.734375 172.195312 C 77.484375 168.453125 74.929688 158.296875 75.390625 148.292969 C 75.375 147.117188 74.945312 146.242188 74.011719 145.574219 C 72.246094 144.296875 70.835938 142.472656 68.316406 142.160156 C 69.21875 139.339844 70.035156 136.679688 70.984375 134.070312 C 71.105469 133.726562 71.84375 133.402344 72.289062 133.402344 C 73.640625 133.414062 74.664062 132.792969 75.480469 131.855469 C 79.457031 127.222656 82.257812 122.117188 81.621094 115.703125 C 81.457031 113.996094 81.085938 112.527344 78.921875 112.167969 C 84.023438 110.523438 96.203125 108.652344 90.910156 100.976562 C 86.292969 94.234375 84.382812 86.082031 80.792969 78.808594 C 73.9375 62.359375 54.355469 55.675781 37.785156 59.476562 C 21.140625 62.375 11.230469 76.625 6.214844 91.742188 C 5.074219 94.738281 3.796875 97.648438 1.957031 100.308594 C 1.082031 101.984375 -1.230469 104.539062 0.683594 106.214844 C 2.433594 107.582031 0.859375 109.765625 0.652344 111.488281 C -15.308594 116.015625 -29.003906 122.074219 -44.683594 125.425781 C -48.96875 127.433594 -50.511719 128.605469 -54.042969 130.652344 C -60.289062 135.507812 -67.691406 138.835938 -74.425781 142.636719 L -82.617188 148.988281 C -84.335938 147 -85.851562 145.054688 -89.320312 142.636719 C -93.386719 145.085938 -100.773438 152.480469 -103.296875 155.804688 C -111.441406 166.539062 -124.804688 175.207031 -133.367188 185.632812 C -139.65625 193.292969 -147.683594 204.515625 -150.160156 211.035156 C -153.097656 222.199219 -143.363281 232.175781 -134.492188 237.402344 C -128.46875 240.832031 -121.097656 240.015625 -114.40625 240.59375 C -103.175781 240.519531 -91.828125 241.113281 -80.644531 239.910156 C -69.21875 237.730469 -57.1875 237.210938 -46.210938 233.320312 C -43.585938 232.308594 -39.921875 230.882812 -37.902344 233.511719 C -36.269531 235.695312 -34.148438 237.714844 -32.457031 239.820312 C -33.882812 243.460938 -34.3125 246.800781 -33.601562 250.542969 C -32.414062 257 -30.902344 263.414062 -29.65625 269.855469 C -36.050781 269.546875 -42.027344 269.917969 -47.398438 273.984375 C -50.914062 276.6875 -54.769531 279.269531 -55.410156 284.007812 C -56.269531 286.8125 -56.519531 292.097656 -58.714844 293.953125 C -60.628906 294.667969 -60.628906 296.078125 -60.777344 297.605469 C -61.195312 302.238281 -61.640625 306.855469 -62.898438 311.355469 C -63.269531 312.691406 -63.449219 314.101562 -62.53125 315.304688 C -61.816406 316.253906 -61.789062 317.203125 -61.964844 318.316406 C -63.359375 327.375 -65.050781 336.28125 -66.207031 345.382812 C -64.488281 345.828125 -62.839844 346.257812 -61.296875 346.644531 C -60.75 345.902344 -60.480469 345.128906 -60.023438 344.996094 C -57.351562 344.210938 -54.621094 343.570312 -51.550781 344.359375 C -51.730469 347.355469 -52.605469 349.867188 -53.359375 352.6875 C -53.792969 354.5 -53.375 355.390625 -51.699219 356.222656 C -47.5625 358.980469 -41.96875 353.785156 -41.566406 357.246094 C -41.285156 358.671875 -42.132812 359.53125 -43.066406 360.347656 C -44.742188 361.832031 -45.410156 363.554688 -44.179688 365.605469 C -43.332031 366.96875 -44.59375 368.144531 -45.128906 369.332031 C -52.828125 383.242188 -57.027344 380.570312 -43.585938 386.953125 C -48.082031 398.179688 -51.90625 396.46875 -42.367188 401.074219 C -38.617188 402.765625 -38.925781 403.761719 -36.417969 399.082031 C -35.203125 396.8125 -34.164062 394.464844 -32.964844 391.988281 C -31.570312 392.402344 -30.21875 392.816406 -28.707031 393.277344 C -26.585938 389.046875 -25.144531 384.710938 -23.335938 380.363281 C -22.460938 378.207031 -20.753906 376.8125 -18.839844 375.582031 C -24.832031 387.964844 -30.976562 400.910156 -33.363281 414.671875 C -29.03125 415.980469 -24.980469 417.195312 -20.8125 418.457031 C -25.621094 451.761719 -24.167969 485.746094 -20.648438 519.121094 C -19.6875 526.660156 -18.128906 534.128906 -17.164062 541.6875 C -16.75 544.921875 -14.703125 564.730469 -11.75 565.796875 C -9.597656 566.539062 -11.691406 573.28125 -12.773438 575.242188 C -15.546875 580.777344 -18.453125 581.980469 -15.367188 589.804688 C -14.730469 592.0625 -14.789062 594.4375 -15.398438 596.710938 C -15.769531 598.074219 -15.664062 609.597656 -14.375 614.671875 C -13.457031 617.523438 -15.917969 619.898438 -16.394531 622.511719 C -17.859375 633.277344 -10.667969 640.847656 -13.574219 651.195312 C -14.640625 658.308594 -19.136719 666.445312 -14.285156 672.976562 C -12.609375 675.234375 -10.964844 677.550781 -9.582031 679.984375 C -5.089844 688.550781 1.203125 682.9375 2.34375 688.386719 C 4.375 696.449219 7.164062 704.257812 10.355469 711.921875 C 12.328125 716.863281 12.699219 719.980469 9.496094 724.613281 C 7.046875 728.074219 11.40625 729.289062 10.296875 732.214844 C 9.003906 735.644531 9.078125 738.910156 11.511719 741.941406 C 8.765625 745.445312 3.902344 747.507812 3.128906 752.257812 C 2.492188 755.894531 2.550781 759.546875 3.277344 763.15625 C 3.707031 765.25 3.886719 765.382812 5.992188 765.429688 C 19.152344 765.292969 32.339844 766.675781 45.453125 765.21875 C 47.292969 765.027344 47.425781 764.761719 47.589844 762.890625 C 47.738281 761.242188 47.828125 759.578125 47.945312 757.722656 C 49.472656 757.617188 50.867188 757.542969 52.441406 757.441406 C 52.589844 759.148438 52.695312 760.648438 52.84375 762.148438 C 53.019531 764.015625 53.078125 764.152344 54.976562 764.476562 C 56.847656 764.804688 58.746094 765.175781 60.628906 765.160156 C 72.082031 764.789062 83.578125 765.472656 94.957031 764.34375 C 95.226562 754.101562 97.4375 744.257812 83.964844 743.453125 C 82.320312 743.292969 81.160156 742.371094 80.226562 741.109375 C 78.222656 738.464844 75.597656 732.1875 78.460938 729.527344 C 79.574219 728.800781 80.050781 727.375 79.605469 726.128906 C 77.675781 720.722656 78.238281 715.351562 79.839844 709.976562 C 82.214844 701.957031 84.53125 693.941406 86.859375 685.910156 C 95.523438 684.898438 96.292969 680.265625 100.417969 673.867188 C 102.109375 671.582031 102.835938 669.175781 102.390625 666.460938 C 101.632812 661.871094 100.878906 657.300781 100.195312 652.710938 C 99.914062 650.839844 99.558594 648.96875 100.34375 647.097656 C 103.933594 638.546875 105.371094 629.625 105.445312 620.359375 C 104.898438 607.933594 105.089844 594.808594 99.988281 583.300781 C 105.046875 580.363281 104.289062 577.808594 104.332031 572.65625 C 104.246094 567.386719 105.386719 562.292969 106.246094 557.128906 C 110.34375 528.503906 111.664062 499.523438 114.75 470.839844 C 116.351562 471.046875 117.773438 471.359375 119.183594 471.386719 C 121.941406 471.445312 121.941406 471.371094 122.65625 468.625 C 122.683594 468.492188 122.832031 468.402344 123.027344 468.179688 C 129.34375 469.84375 126.925781 466.503906 131.40625 466.117188 C 133.722656 466.058594 135.367188 465.195312 135.578125 462.613281 C 135.589844 462.480469 135.738281 462.359375 135.871094 462.183594 C 142.695312 460.996094 138.617188 458.367188 143.527344 456.660156 C 145.871094 455.753906 147.101562 454.179688 146.953125 451.417969 C 146.835938 442.152344 147.769531 432.785156 150.324219 423.847656 C 155.945312 423.625 161.476562 423.609375 167.175781 423.136719 C 163.96875 388.050781 167.871094 352.96875 166.507812 317.828125 C 166.359375 311.695312 165.574219 305.699219 163.15625 299.980469 C 162.292969 297.589844 161.316406 295.289062 161.121094 292.691406 C 165.023438 292.007812 168.035156 289.828125 171.359375 288.074219 C 173.078125 287.226562 173.152344 287.214844 172.664062 285.3125 Z M 21.703125 149.910156 C 19.65625 150.949219 18.738281 152.566406 18.78125 154.882812 C 18.46875 158.164062 19.640625 164.519531 16.480469 166.449219 C 14.285156 164.964844 12.222656 166.226562 10.175781 167.074219 C -6.929688 175.507812 -15.636719 165.589844 -31.644531 168.4375 L -31.644531 174.167969 C -35.945312 171.320312 -43.527344 173.277344 -45.277344 176.039062 C -45.722656 176.753906 -46.046875 177.539062 -46.773438 177.96875 C -48.703125 179.097656 -49.84375 179.886719 -51.863281 178.964844 C -53.066406 178.414062 -54.488281 178.847656 -55.171875 179.976562 C -55.1875 179.988281 -55.1875 180.003906 -55.199219 180.019531 C -56.046875 181.445312 -57.78125 182.023438 -59.265625 181.3125 C -59.578125 181.164062 -59.933594 181 -60.378906 180.820312 C -62.160156 180.152344 -66.402344 182.453125 -67.335938 182.914062 C -74.707031 186.152344 -81.742188 190.589844 -89.320312 193.054688 C -81.949219 184.027344 -73.34375 176.5 -66.476562 167.085938 C -65.570312 166.835938 -67.304688 163.644531 -67.320312 163.644531 C -62.75 155.269531 -51.046875 160.40625 -43.984375 159.515625 C -40.292969 159.027344 -36.628906 158.371094 -32.964844 157.691406 C -25.589844 155.996094 -19.285156 151.46875 -12.386719 148.542969 C -8.945312 147.371094 -8.78125 140.777344 -13.113281 141.226562 C -19.078125 142.160156 -23.988281 145.308594 -29.683594 147.355469 C -29.609375 146.808594 -29.65625 146.511719 -29.566406 146.449219 C -27.089844 144.832031 -24.625 143.199219 -22.117188 141.65625 C -20.769531 140.824219 -19.210938 140.289062 -18.410156 138.746094 C -18.277344 138.492188 -18.007812 138.210938 -17.757812 138.152344 C -15.074219 137.527344 -13.410156 135.136719 -10.875 134.246094 C -9.273438 133.683594 -8.558594 132.390625 -8.632812 130.625 C -4.6875 130 -2.105469 127.148438 1.335938 125.605469 C 2.894531 124.953125 4.4375 124.359375 5.355469 122.785156 C 6.941406 121.242188 9.375 121.910156 9.050781 118.554688 C 10.875 118.644531 12.136719 119.535156 13.441406 120.378906 C 12.847656 124.507812 12.460938 133.460938 17.785156 134.367188 C 18.824219 134.5 19.03125 135.332031 19.210938 136.191406 C 20.117188 140.617188 22.015625 144.535156 24.535156 148.277344 C 23.511719 148.871094 22.636719 149.433594 21.703125 149.910156 Z M 43.792969 713.925781 C 43.628906 713.925781 43.464844 713.9375 43.304688 713.9375 C 42.429688 709.277344 42.414062 704.554688 42.308594 699.835938 L 42.785156 699.703125 C 44.609375 702.195312 43.496094 710.433594 43.792969 713.925781 Z M 45.410156 653.707031 C 34.949219 643.296875 44.105469 643.476562 46.0625 631.449219 C 49.59375 636.230469 49.371094 644.945312 45.410156 653.707031 Z M 51.375 582.707031 C 46.757812 588.988281 44.535156 597.453125 48.835938 604.445312 C 50.378906 607.042969 50.734375 609.179688 48.4375 611.496094 C 47.21875 613.085938 47.101562 614.597656 46.0625 616.617188 C 44.757812 609.226562 43.941406 601.964844 41.550781 594.839844 C 38.273438 587.191406 49.832031 586.078125 41.550781 572.640625 C 39.148438 569.300781 38.542969 570.042969 41.152344 566.257812 C 42.652344 563.914062 44.238281 561.625 46.078125 558.878906 C 46.433594 566.167969 48.003906 572.582031 51.460938 578.894531 C 52.160156 580.273438 52.277344 581.417969 51.375 582.707031 Z M 110.890625 364.980469 C 109.289062 366.242188 109.628906 368.765625 108.875 370.59375 C 107.285156 367 105.921875 363.390625 105.359375 359.265625 C 107.464844 359.027344 109.140625 358.921875 111.128906 358.535156 C 113.011719 358.121094 113.085938 358.105469 113.144531 356.191406 C 113.441406 353.695312 116.453125 354.4375 116.410156 350.355469 C 116.542969 346.035156 114.71875 341.878906 113.785156 337.722656 C 112.539062 336.175781 110.757812 336.117188 108.992188 336.191406 C 105.949219 336.101562 106.070312 339.191406 104.882812 341.253906 C 103.933594 335.953125 107.121094 330.667969 103 326.289062 C 103.917969 325.828125 104.792969 325.398438 105.800781 324.910156 C 109.332031 332.496094 109.925781 331.648438 117.773438 330.9375 C 117.328125 340.796875 117.210938 350.933594 120.015625 360.480469 C 121.351562 364.238281 122.195312 368.070312 122.535156 372.03125 C 122.804688 375.136719 123.308594 378.222656 123.753906 381.3125 C 125.089844 389.417969 123.175781 397.480469 121.824219 405.453125 C 121.675781 405.4375 121.527344 405.4375 121.363281 405.421875 C 120.652344 400.019531 120.339844 394.554688 119.71875 389.152344 C 119.597656 388.097656 119.761719 387.355469 120.742188 386.894531 C 122.476562 386.078125 122.832031 384.578125 122.609375 382.886719 C 122.105469 379.261719 120.324219 375.96875 119.257812 372.492188 C 118.710938 370.875 117.90625 369.449219 116.648438 368.277344 C 115.339844 366.167969 113.636719 363.761719 110.890625 364.980469 Z M 119.363281 455.796875 C 119.125 453.40625 117.640625 452.21875 115.445312 451.921875 C 115.488281 449.652344 115.488281 449.652344 118.828125 447.648438 C 121.929688 450.632812 122.523438 454 119.363281 455.796875 Z M 122.449219 419.988281 C 119.375 421.457031 115.980469 425.613281 114.792969 427.542969 C 114.527344 425.925781 114.316406 424.710938 114.09375 423.285156 C 116.574219 422.378906 120.609375 420.730469 122.996094 419.394531 C 122.953125 419.15625 122.878906 418.816406 122.820312 418.339844 L 126.171875 418.339844 C 126.214844 418.457031 126.273438 418.5625 126.320312 418.679688 C 125.519531 419.113281 123.515625 419.363281 122.449219 419.988281 Z M 122.449219 419.988281 "/></svg>