<svg xmlns="http://www.w3.org/2000/svg" viewBox="242.0 100.0 948.0 136.0" preserveAspectRatio="none"><g transform="translate(1432.0,0) scale(-1,1)"><path fill="#d9b777" d="M 289.300781 115.539062 C 288.644531 116.019531 284.960938 116.71875 281.847656 116.5 C 280.621094 122.816406 283.121094 128.910156 279.964844 135.222656 C 277.46875 140.792969 280.625 146.402344 278.742188 151.972656 C 278.742188 152.5 275.015625 152.453125 275.015625 152.980469 C 273.171875 155.171875 270.0625 156.355469 264.449219 156.878906 C 264.449219 157.144531 264.449219 157.582031 264.449219 157.84375 C 265.675781 158.109375 268.175781 157.625 269.445312 157.847656 C 273.789062 158.855469 277.515625 159.074219 281.855469 158.855469 C 281.855469 162.539062 280.015625 166.136719 282.472656 169.820312 C 286.199219 174.421875 284.929688 178.324219 283.085938 182.710938 C 281.816406 184.417969 273.179688 184.898438 271.90625 187.574219 C 271.90625 188.277344 272.523438 189.242188 271.90625 189.242188 C 265.113281 190.6875 266.296875 191.433594 266.910156 192.398438 C 265.066406 192.398438 263.839844 192.394531 261.910156 192.394531 C 263.183594 195.070312 259.414062 195.070312 256.914062 195.550781 C 256.914062 195.816406 256.914062 196.253906 256.914062 196.515625 C 249.460938 196.253906 248.230469 197.480469 250.117188 198.226562 C 251.34375 198.925781 253.1875 198.226562 254.457031 197.480469 C 255.070312 197.746094 256.300781 198.445312 256.957031 198.226562 C 261.296875 197.746094 265.640625 197 269.9375 198.230469 C 271.820312 198.976562 276.777344 197.96875 278.617188 198.757812 C 283.574219 200.203125 289.800781 202.660156 286.074219 205.070312 C 282.347656 207.484375 272.4375 207.742188 269.9375 210.15625 C 268.667969 211.601562 263.097656 212.347656 266.871094 214.277344 C 271.867188 216.46875 277.4375 217.917969 281.734375 220.109375 C 282.390625 220.59375 281.121094 221.777344 281.734375 221.777344 C 282.613281 222.039062 283.402344 222.039062 284.101562 222.039062 C 285.550781 221.296875 287.699219 220.636719 289.800781 220.113281 C 287.917969 220.679688 286.382812 221.953125 284.101562 222.039062 C 283.007812 222.609375 282.347656 223.265625 282.347656 223.96875 C 282.347656 225.371094 281.648438 226.863281 281.5625 228.355469 L 1149.636719 228.5 C 1149.460938 226.480469 1149.109375 224.378906 1148.101562 222.140625 C 1146.214844 217.535156 1146.214844 212.890625 1148.097656 208.285156 C 1148.097656 208.285156 1151.210938 208.503906 1152.394531 208.285156 C 1159.234375 205.128906 1166.644531 201.492188 1177.210938 200.484375 C 1174.097656 200.265625 1169.144531 201.449219 1167.914062 199.519531 C 1164.1875 192.722656 1169.140625 186.367188 1174.09375 179.832031 C 1175.933594 177.90625 1174.707031 175.710938 1174.707031 173.78125 C 1177.820312 174.265625 1179.046875 172.074219 1182.773438 172.820312 C 1182.773438 168.699219 1182.773438 164.3125 1182.773438 160.191406 C 1177.203125 160.410156 1180.316406 156.769531 1174.703125 156.070312 C 1174.089844 156.070312 1172.863281 156.070312 1172.25 156.070312 C 1168.523438 154.882812 1170.40625 152.910156 1169.75 151.199219 C 1166.679688 145.851562 1166.019531 139.054688 1170.972656 134.1875 C 1174.699219 130.550781 1174.042969 125.683594 1170.972656 121.824219 C 1170.355469 120.332031 1169.742188 118.929688 1165.359375 117.4375 C 1162.859375 116.691406 1164.742188 115.507812 1163.472656 113.535156 C 1161.5 111.5625 1162.023438 109.28125 1162.199219 107.003906 L 289.257812 106.8125 C 289.871094 109.792969 289.785156 112.601562 289.300781 115.539062 Z M 289.300781 115.539062 "/></g></svg>