<svg xmlns="http://www.w3.org/2000/svg" viewBox="184 266 236 56" preserveAspectRatio="none"><path fill="#0e1f15" d="M 400.246094 274.394531 C 400.28125 273.859375 400.28125 273.339844 400.28125 272.804688 L 193.3125 272.804688 C 192.761719 273.1875 192.574219 273.675781 193.011719 274.144531 C 193.515625 274.730469 194.855469 274.3125 195.859375 274.394531 C 194.6875 275.230469 192.007812 274.980469 190.832031 275.902344 C 191 275.902344 191.335938 275.902344 191.335938 275.902344 C 191.503906 276.152344 191.167969 276.40625 191.335938 276.65625 C 193.179688 277.996094 194.6875 279.085938 193.847656 280.761719 C 193.847656 280.675781 193.847656 280.59375 193.847656 280.507812 C 193.679688 280.507812 193.515625 280.507812 193.347656 280.507812 C 193.847656 281.515625 195.691406 282.4375 197.871094 282.269531 C 196.027344 282.6875 193.515625 282.9375 192.84375 284.113281 C 192.675781 284.445312 193.179688 284.699219 193.679688 284.949219 C 194.351562 285.367188 195.023438 285.953125 194.855469 286.625 C 195.691406 286.539062 196.027344 286.707031 196.363281 286.792969 C 196.5625 286.824219 196.765625 286.859375 197 286.875 C 197.652344 286.65625 198.625 286.574219 199.378906 286.625 L 199.378906 286.875 C 198.605469 286.941406 197.734375 286.960938 197 286.875 C 196.363281 287.09375 196.042969 287.410156 196.53125 287.882812 C 197.199219 288.46875 197.871094 289.222656 197.199219 289.640625 C 195.691406 290.5625 194.015625 291.398438 192.007812 292.070312 C 191.671875 292.152344 191.671875 292.65625 192.007812 292.992188 C 192.007812 293.074219 192.507812 292.992188 192.84375 292.992188 C 192.675781 293.410156 192.84375 293.660156 193.347656 293.746094 C 193.515625 293.746094 193.679688 293.746094 193.847656 293.726562 C 194.335938 293.59375 194.703125 293.292969 195.355469 293.242188 C 195.355469 293.375 195.273438 293.511719 195.238281 293.644531 C 195.457031 293.644531 195.675781 293.644531 195.859375 293.660156 C 197.199219 293.828125 195.859375 293.996094 195.859375 294.246094 C 195.257812 294.046875 195.1875 293.84375 195.238281 293.644531 C 194.804688 293.660156 194.316406 293.710938 193.847656 293.726562 C 193.582031 293.8125 193.261719 293.828125 192.84375 293.746094 C 192.84375 293.828125 192.84375 293.996094 192.84375 293.996094 C 193.515625 294.078125 194.183594 293.996094 194.855469 293.996094 C 194.703125 294.699219 195.273438 294.75 195.757812 294.75 C 196.160156 294.597656 196.597656 294.449219 197.03125 294.332031 C 197.703125 294.164062 200.214844 293.828125 200.382812 294.75 C 198.875 294.75 197.367188 294.75 195.859375 294.75 C 195.824219 294.75 195.792969 294.75 195.757812 294.75 C 193.964844 295.417969 192.609375 296.375 193.011719 297.597656 C 193.011719 297.765625 193.679688 297.933594 193.679688 298.101562 C 193.847656 298.9375 195.1875 299.273438 196.363281 299.691406 C 196.53125 299.691406 196.53125 300.027344 196.363281 300.109375 C 196.175781 300.160156 196.011719 300.195312 195.84375 300.246094 C 195.808594 300.34375 195.742188 300.546875 195.859375 300.613281 C 196.027344 300.695312 196.695312 300.53125 196.863281 300.613281 C 197.199219 300.78125 196.695312 301.117188 196.363281 301.117188 C 195.355469 301.117188 194.015625 301.199219 193.347656 301.703125 C 193.328125 301.703125 193.3125 301.71875 193.277344 301.71875 C 193.378906 301.851562 193.496094 301.988281 193.679688 302.121094 C 194.519531 302.707031 196.027344 303.378906 195.691406 303.964844 C 195.1875 304.464844 194.015625 305.054688 194.519531 305.722656 C 194.519531 305.722656 195.1875 305.640625 195.355469 305.722656 C 195.523438 305.808594 195.1875 306.140625 195.355469 306.226562 C 195.859375 306.308594 196.53125 306.140625 196.695312 306.226562 C 197.703125 306.980469 198.707031 306.980469 199.878906 306.980469 C 199.210938 306.980469 198.539062 306.980469 197.871094 306.980469 C 197.535156 307.0625 197.199219 307.230469 196.863281 307.230469 C 195.691406 307.230469 193.847656 307.0625 193.515625 307.816406 C 192.84375 308.988281 195.355469 309.742188 197.367188 310.164062 C 198.203125 310.328125 198.035156 311 197.703125 311.335938 C 197.535156 311.585938 196.195312 311.671875 196.027344 311.921875 C 195.523438 312.589844 198.707031 312.339844 197.703125 313.011719 C 196.863281 313.597656 195.355469 313.679688 194.351562 314.183594 C 194.183594 314.265625 193.515625 314.183594 193.515625 314.183594 C 193.398438 314.367188 193.363281 314.535156 193.398438 314.6875 L 392.289062 314.6875 C 392.421875 314.636719 392.574219 314.570312 392.707031 314.519531 C 392.777344 314.5 392.824219 314.484375 392.894531 314.46875 C 393.929688 314.050781 394.988281 313.664062 396.058594 313.261719 C 396.394531 313.09375 397.398438 312.589844 396.226562 312.339844 C 395.890625 312.339844 395.554688 312.339844 395.222656 312.339844 C 395.054688 312.425781 394.886719 312.507812 394.71875 312.589844 C 394.214844 312.675781 393.378906 312.757812 393.210938 312.339844 C 392.875 311.835938 392.539062 311.25 393.546875 310.917969 C 395.4375 310.28125 397.03125 309.710938 398.640625 309.140625 C 398.472656 309.140625 398.304688 309.105469 398.238281 309.074219 C 398.070312 308.988281 398.070312 308.65625 398.238281 308.570312 C 399.410156 308.070312 401.585938 307.566406 401.421875 306.980469 C 401.085938 306.308594 399.410156 305.554688 398.90625 304.71875 C 398.738281 304.382812 398.40625 304.046875 398.40625 303.710938 C 398.238281 303.378906 397.398438 303.125 399.242188 302.707031 C 399.242188 302.707031 399.242188 302.539062 399.242188 302.457031 C 400.414062 302.539062 401.253906 302.457031 402.257812 302.203125 C 402.257812 302.203125 402.257812 302.039062 402.257812 301.953125 C 402.425781 301.953125 402.59375 301.953125 402.761719 301.953125 C 402.59375 301.449219 403.933594 301.199219 404.769531 301.117188 C 404.101562 300.109375 402.257812 299.441406 401.585938 298.519531 C 400.582031 297.011719 406.109375 297.011719 408.457031 296.339844 C 407.449219 295.585938 405.777344 294.75 406.445312 294.078125 C 407.449219 292.992188 409.796875 292.488281 409.628906 291.230469 C 409.460938 290.894531 410.464844 291.0625 410.96875 290.980469 C 411.136719 290.894531 410.800781 290.5625 410.96875 290.476562 C 411.136719 290.394531 411.808594 290.5625 411.972656 290.476562 C 412.140625 290.394531 411.972656 290.140625 411.972656 289.976562 C 412.476562 290.058594 413.648438 290.058594 413.148438 289.472656 C 411.972656 288.300781 407.953125 287.714844 409.628906 286.207031 C 409.964844 285.953125 411.304688 285.535156 410.800781 285.117188 C 410.800781 285.03125 410.300781 285.117188 409.964844 285.117188 C 410.132812 284.445312 408.957031 284.027344 408.121094 283.523438 C 407.785156 283.359375 408.121094 282.855469 407.785156 282.519531 C 407.785156 282.4375 407.285156 282.519531 406.949219 282.519531 C 405.609375 282.4375 406.109375 281.683594 404.769531 281.429688 C 404.769531 281.429688 404.601562 281.097656 404.769531 281.011719 C 405.945312 280.59375 406.949219 280.425781 408.457031 280.507812 C 408.625 280.507812 408.792969 280.34375 408.957031 280.257812 C 408.792969 280.257812 408.625 280.257812 408.457031 280.257812 C 408.289062 280.257812 408.121094 280.257812 407.953125 280.257812 C 408.121094 280.257812 408.289062 280.257812 408.457031 280.257812 C 406.445312 279.589844 403.933594 279 403.09375 277.746094 C 403.09375 277.660156 402.425781 277.578125 402.257812 277.492188 C 401.921875 276.90625 402.59375 276.238281 403.765625 275.902344 C 404.269531 275.820312 404.769531 275.984375 405.273438 275.902344 C 405.273438 275.902344 405.273438 275.734375 405.273438 275.652344 C 403.933594 275.734375 402.257812 275.566406 401.921875 274.898438 C 401.671875 274.195312 401.503906 273.488281 401.65625 272.804688 L 401.050781 272.804688 C 400.648438 273.304688 400.363281 273.824219 400.246094 274.394531 Z M 400.246094 274.394531 "/></svg>